<svg width="36" height="36" viewBox="0 0 36 36" fill="none" xmlns="http://www.w3.org/2000/svg">
<circle cx="18" cy="18" r="18" fill="#FE0000"/>
<path fill-rule="evenodd" clip-rule="evenodd" d="M16.0086 20.2901V14.7344C17.9809 15.6624 19.5084 16.5589 21.315 17.5255C19.8249 18.3519 17.9809 19.2791 16.0086 20.2901ZM27.0001 11.9713C26.6599 11.523 26.0801 11.1741 25.4627 11.0586C23.6482 10.714 12.3283 10.713 10.5148 11.0586C10.0198 11.1514 9.57893 11.3757 9.20026 11.7242C7.60468 13.2052 8.10466 21.147 8.48925 22.4334C8.65098 22.9903 8.86005 23.3919 9.12335 23.6555C9.46258 24.004 9.92705 24.244 10.4606 24.3516C11.9546 24.6606 19.6514 24.8334 25.4312 24.398C25.9637 24.3052 26.4351 24.0575 26.8068 23.6941C28.2821 22.2191 28.1815 13.8313 27.0001 11.9713Z" fill="white"/>
</svg>
