<svg xmlns="http://www.w3.org/2000/svg" width="797" height="739" xmlns:v="https://vecta.io/nano"><path d="M431 321.6c-.1.1-.1.1 0 .1 0 0 .1 0 0-.1h0zm42.3 47.2s-.2 0-.2.1 0 .2.1.2.2 0 .2-.1c.1-.1 0-.2-.1-.2zm-230.2-71.1c-.1.1 0 .1 0 .1v-.1c.1.1 0 0 0 0zm14-7.6s-.1 0 0 0c-.1.1-.1.1 0 .1v-.1zm14.6-6.4c-.1.1-.1.1 0 .1 0 0 .1 0 0-.1.1.1.1 0 0 0zm15.2-5s-.1 0 0 0c-.1.1-.1.1 0 .1v-.1c0 .1 0 0 0 0zm15.5-3.8c-.1 0-.3.1-.3.2s.1.3.2.3.3-.1.3-.2c.1-.2 0-.3-.2-.3zm15.8-2.2s-.2 0-.2.1 0 .2.1.2.2 0 .2-.1c.1-.1 0-.2-.1-.2zm16-.8s-.2 0-.2.1 0 .2.1.2.2 0 .2-.1 0-.2-.1-.2zm15.9.6c-.1 0-.2 0-.2.1s0 .2.1.2.2 0 .2-.1 0-.2-.1-.2zm15.8 2.1s-.2 0-.2.1 0 .2.1.2.2 0 .2-.1c.1-.1 0-.2-.1-.2zm15.6 3.4s-.2 0-.2.1 0 .2.1.2.2 0 .2-.1 0-.2-.1-.2zm15.2 4.8s-.2 0-.2.1 0 .2.1.2.2 0 .2-.1c0 0 0-.1-.1-.2zm14.7 6.2s-.2 0-.2.1 0 .2.1.2.2 0 .2-.1c.1-.1 0-.2-.1-.2zm14.1 7.5s-.2 0-.2.1 0 .2.1.2.2 0 .2-.1 0-.2-.1-.2zm13.4 8.5c-.2 0-.4.1-.4.3s.1.4.3.4.4-.1.4-.3-.1-.3-.3-.4zm12.5 10s-.3.1-.3.2.1.3.2.3.3-.1.3-.2c0-.2-.1-.3-.2-.3zm11.6 10.8c-.2 0-.4.1-.4.3s.1.4.3.4.4-.1.4-.3-.1-.3-.3-.4zm10.6 12.1s-.2 0-.2.1 0 .2.1.2.2 0 .2-.1 0-.1-.1-.2zm9.5 12.6c-.2-.1-.5.1-.5.3-.1.2.1.5.3.5.2.1.5-.1.5-.3a.55.55 0 0 0-.3-.5zm8.2 13.7c-.2-.1-.5.1-.5.3-.1.2.1.5.3.5.2.1.5-.1.5-.3.1-.2 0-.5-.3-.5zm7 14.5s-.2 0-.2.1 0 .2.1.2.2 0 .2-.1c.1 0 0-.1-.1-.2zm5.7 14.7c-.2-.1-.5.1-.5.3-.1.2.1.5.3.5.2.1.5-.1.5-.3.1-.2 0-.4-.3-.5zm4.3 15.6s-.2 0-.2.1 0 .2.1.2.2 0 .2-.1c.1-.1 0-.2-.1-.2zm3 15.5c-.2 0-.4.1-.4.3s.1.4.3.4.4-.1.4-.3-.1-.4-.3-.4zm1.5 16s-.2 0-.2.1 0 .2.1.2.2 0 .2-.1c.1-.1 0-.2-.1-.2zm.1 16.1s-.1 0 0 0c-.1.1-.1.1 0 .1v-.1zm-28.7 90.1c-.1.1-.1.1 0 .1 0 0 .1 0 0-.1.1.1.1 0 0 0zM144.4 407.4c-.1 0-.1 0 0 0-.1.1-.1.1 0 .1v-.1c0 .1 0 0 0 0zm4-15.4c-.1.1-.1.1 0 .1v-.1h0zm5.3-15c-.1.1-.1.1 0 .1 0 0 .1 0 0-.1h0zm6.6-14.6s-.1 0 0 0c-.1.1-.1.1 0 .1v-.1zm7.7-13.9s-.1 0 0 0c-.1.1-.1.1 0 .1v-.1zm8.8-13.3s-.1 0 0 0c-.1.1 0 .1 0 .1v-.1h0zm9.9-12.6s-.1 0 0 0c-.1.1-.1.1 0 .1v-.1c0 .1 0 0 0 0zm10.8-11.7c-.1.1-.1.1 0 .1 0 .1 0 .1 0-.1.1.1.1.1 0 0zm11.8-10.7s-.1 0 0 0c-.1.1-.1.1 0 .1v-.1zm12.7-10.1c-.2 0-.4.1-.4.3s.1.4.3.4.4-.1.4-.3-.2-.3-.3-.4zm13.2-8.4c-.1.1-.1.1 0 .1 0 0 .1 0 0-.1h0zm14.1-7.7s-.3.1-.3.2.1.3.2.3.3-.1.3-.2c0-.2 0-.3-.2-.3zm14.7-6.6c-.2 0-.4.1-.4.3s.1.4.3.4.4-.1.4-.3c0-.1-.2-.3-.3-.4zm15-5.2c-.2 0-.4.1-.4.3s.1.4.3.4.4-.1.4-.3-.1-.3-.3-.4zm15.5-3.9s-.3.1-.3.2.1.3.2.3.3-.1.3-.2-.1-.2-.2-.3zm15.8-3c-.3-.1-.6.1-.7.4s.1.6.4.7.6-.1.7-.4-.1-.6-.4-.7zm15.8-1.4c-.3-.1-.6.1-.7.4s.1.6.4.7.6-.1.7-.5c.2-.2 0-.5-.4-.6zm16-.2c-.4-.1-.8.2-.8.5-.1.4.2.8.5.8.4.1.8-.2.8-.5.1-.3-.1-.7-.5-.8zm15.9 1.4c-.3-.1-.6.1-.6.4-.1.3.1.6.4.6.3.1.6-.1.6-.4s-.1-.5-.4-.6zm15.8 2.4c-.3-.1-.6.1-.7.4s.1.6.4.7.6-.1.7-.4-.1-.6-.4-.7zm15.5 3.9c-.3-.1-.6.1-.6.4-.1.3.1.6.4.6.3.1.6-.1.6-.4s-.2-.6-.4-.6zm15.1 4.9c-.3-.1-.6.1-.7.4s.1.6.4.7.6-.1.7-.4-.1-.6-.4-.7zm14.8 5.9c-.5-.1-1 .2-1.1.7s.2 1 .7 1.1 1-.2 1.1-.7-.2-.9-.7-1.1zm14.1 7.3a1.11 1.11 0 0 0-1.3.8 1.11 1.11 0 0 0 .8 1.3 1.11 1.11 0 0 0 1.3-.8c.2-.6-.2-1.2-.8-1.3zm13.5 8.5a1.11 1.11 0 0 0-1.3.8 1.11 1.11 0 0 0 .8 1.3 1.11 1.11 0 0 0 1.3-.8 1.11 1.11 0 0 0-.8-1.3zm12.6 10.1c-.3-.1-.6.1-.7.4s.1.6.4.7.6-.1.7-.4-.1-.6-.4-.7zm12 10.4c-.4-.1-.8.2-.9.6s.2.8.6.9.8-.2.9-.6c0-.4-.2-.8-.6-.9zm11 11.6c-.4-.1-.8.2-.8.5-.1.4.2.8.5.8.4.1.8-.2.8-.5.1-.3-.2-.7-.5-.8zm10 12.4c-.4-.1-.8.2-.8.5-.1.4.2.8.5.8.4.1.8-.2.8-.5.1-.3-.1-.7-.5-.8zm9 13.2c-.4-.1-.8.2-.9.6s.2.8.6.9.8-.2.9-.6c0-.4-.2-.8-.6-.9zm7.8 14.1c-.3-.1-.6.1-.6.4-.1.3.1.6.4.6.3.1.6-.1.6-.4.1-.3-.1-.6-.4-.6zm6.7 14.5c-.3-.1-.6.1-.6.4-.1.3.1.6.4.6.3.1.6-.1.6-.4.1-.3-.1-.6-.4-.6zm5.6 14.7c-.4-.1-.8.2-.8.5-.1.4.2.8.5.8.4.1.8-.2.8-.5.1-.3-.1-.7-.5-.8zm4.2 15.5c-.3-.1-.6.1-.7.4s.1.6.4.7.6-.1.7-.4-.1-.6-.4-.7zm3 15.8c-.3-.1-.6.1-.6.4-.1.3.1.6.4.6.3.1.6-.1.6-.4.1-.3-.1-.6-.4-.6zm1.7 15.9c-.2-.1-.5.1-.5.3-.1.2.1.5.3.5s.5-.1.5-.3c.1-.2-.1-.5-.3-.5zm.4 16c-.2-.1-.5.1-.5.3-.1.2.1.5.3.5.2.1.5-.1.5-.3.1-.3 0-.5-.3-.5zm-.8 15.9c-.2 0-.4.1-.4.3s.1.4.3.4.4-.1.4-.3-.1-.3-.3-.4zm-2.2 16s-.3.1-.3.2.1.3.2.3.3-.1.3-.2c0-.2-.1-.3-.2-.3zm-3.5 15.6s-.2 0-.2.1 0 .2.1.2.2 0 .2-.1c.1-.1 0-.2-.1-.2zm-4.7 15.3s-.1.1 0 0c-.1.1-.1.1 0 .1 0 0 0 .1 0-.1 0 .1 0 .1 0 0zm-6 14.8c-.1.1-.1.1 0 .1 0 0 .1 0 0-.1.1.1.1 0 0 0zm-7.1 14.3s-.1 0 0 0c-.1.1-.1.1 0 .1v-.1h0zm-8.2 13.7s-.1 0 0 0c-.1.1-.1.1 0 .1v-.1zM455 604.3c-.1.1-.1.1 0 .1v-.1h0zM140 439s-.1 0 0 0c-.1.1-.1.1 0 .1v-.1zm1.5-15.9c-.1.1-.1.1 0 .1v-.1h0zm-10.5-35s0 .1 0 0c-.1.1-.1.1 0 .1 0 .1.1.1 0-.1.1.1.1.1 0 0zm5.2-15s-.1 0 0 0c-.1.1-.1.1 0 .1v-.1zm6.3-14.7s-.1 0 0 0c-.1.1-.1.1 0 .1v-.1zm7.3-14.2c-.1.1-.1.1 0 .1.1.1.1.1 0-.1.1.1.1.1 0 0zm8.5-13.5s-.1 0 0 0c-.1.1-.1.1 0 .1v-.1zm9.3-12.9c-.1.1-.1.1 0 .1 0 0 .1 0 0-.1h0zm10.3-12.2c-.1.1-.1.1 0 .1s.1.1 0-.1c.1.1.1.1 0 0zm11.3-11.4s-.2 0-.2.1 0 .2.1.2.2 0 .2-.1 0-.2-.1-.2zm12-10.6c-.1 0-.3.1-.3.2s.1.3.2.3.3-.1.3-.2 0-.2-.2-.3zm12.9-9.7c-.2-.1-.5.1-.5.3-.1.2.1.5.3.5.2.1.5-.1.5-.3a.55.55 0 0 0-.3-.5zm13.4-8.6c-.2-.1-.5.1-.5.3-.1.2.1.5.3.5.2.1.5-.1.5-.3.1-.2-.1-.4-.3-.5zm14-7.4c-.2 0-.4.1-.4.3s.1.4.3.4.4-.1.4-.3-.1-.4-.3-.4zm14.6-6.5c-.2 0-.4.1-.4.3s.1.4.3.4.4-.1.4-.3-.1-.3-.3-.4zm15.2-6.2c-.7-.1-1.3.3-1.5.9-.1.7.3 1.3.9 1.5.7.1 1.3-.3 1.5-.9s-.2-1.4-.9-1.5zm15.3-3.9c-.5-.1-1 .2-1.1.7s.2 1 .7 1.1 1-.2 1.1-.7-.2-1-.7-1.1zm15.6-2.7c-.3-.1-.6.1-.6.4-.1.3.1.6.4.6.3.1.6-.1.6-.4.1-.3-.1-.6-.4-.6zm15.9-2.1c-.4-.1-.8.2-.9.6s.2.8.6.9.8-.2.9-.6-.2-.8-.6-.9zm16-.9c-.5-.1-1 .2-1.1.7s.2 1 .7 1.1 1-.2 1.1-.7-.2-1-.7-1.1zm15.9.5c-.5-.1-1 .2-1.1.7s.2 1 .7 1.1 1-.2 1.1-.7c.2-.5-.2-1-.7-1.1zm15.9 1.9c-.4-.1-.8.2-.8.5-.1.4.2.8.5.8.4.1.8-.2.8-.5.1-.3-.2-.7-.5-.8zm15.6 2.9c-.4-.1-.8.2-.8.5-.1.4.2.8.5.8.4.1.8-.2.8-.5.2-.4-.1-.7-.5-.8zm15.6 3.7a1.11 1.11 0 0 0-1.3.8 1.11 1.11 0 0 0 .8 1.3 1.11 1.11 0 0 0 1.3-.8c.1-.6-.3-1.2-.8-1.3zm15 5.3c-.5-.1-1 .2-1.1.7s.2 1 .7 1.1 1-.2 1.1-.7-.2-1-.7-1.1zm14.7 6.1a1.2 1.2 0 0 0-1.4.9 1.2 1.2 0 0 0 .9 1.4 1.2 1.2 0 0 0 1.4-.9c.1-.7-.3-1.3-.9-1.4zm14.2 6.9c-.8-.2-1.6.3-1.8 1.2-.2.8.3 1.6 1.2 1.8.8.2 1.6-.3 1.8-1.2.2-.8-.3-1.6-1.2-1.8zm13.6 8.5c-.8-.2-1.6.3-1.8 1.1s.3 1.6 1.1 1.8 1.6-.3 1.8-1.1c.2-.9-.3-1.6-1.1-1.8zm12.8 9.8a1.11 1.11 0 0 0-1.3.8 1.11 1.11 0 0 0 .8 1.3 1.11 1.11 0 0 0 1.3-.8c.1-.6-.2-1.2-.8-1.3zm12.3 9.9c-.8-.2-1.6.3-1.8 1.2-.2.8.3 1.6 1.2 1.8.8.2 1.6-.3 1.8-1.2.1-.8-.4-1.7-1.2-1.8zm11.2 11.6a1.11 1.11 0 0 0-1.3.8 1.11 1.11 0 0 0 .8 1.3 1.11 1.11 0 0 0 1.3-.8c.1-.6-.2-1.2-.8-1.3zm10.6 11.8c-.7-.2-1.4.3-1.5 1-.2.7.3 1.4 1 1.5.7.2 1.4-.3 1.5-1s-.4-1.3-1-1.5zm9.5 13a1.2 1.2 0 0 0-1.4.9c-.2.7.2 1.2.9 1.4a1.2 1.2 0 0 0 1.4-.9c.1-.7-.3-1.3-.9-1.4zm8.5 13.6c-.5-.1-1 .2-1.1.7s.2 1 .7 1.1 1-.2 1.1-.7-.2-1-.7-1.1zm7.5 14.4c-.3-.1-.6.1-.7.5-.1.3.1.6.4.7s.6-.1.7-.4c.1-.4-.1-.8-.4-.8zm6.5 14.4c-.4-.1-.8.2-.8.5-.1.4.2.8.5.8.4.1.8-.2.8-.5.1-.3-.1-.7-.5-.8zm5.3 15.2c-.3-.1-.6.1-.7.4s.1.6.4.7.6-.1.7-.4-.1-.7-.4-.7zm4.2 15.4c-.3-.1-.6.1-.7.4s.1.6.5.7c.3.1.6-.1.7-.4 0-.4-.2-.7-.5-.7zm3.1 15.7c-.3-.1-.6.1-.6.4-.1.3.1.6.4.6.3.1.6-.1.6-.4s-.1-.6-.4-.6zm1.9 15.7c-.3-.1-.6.1-.7.4s.1.6.4.7.6-.1.7-.4-.1-.6-.4-.7zm.7 16c-.3-.1-.6.1-.7.4s.1.6.4.7.6-.1.7-.5c.1-.3-.1-.5-.4-.6zm-.5 16c-.3-.1-.6.1-.6.4s.1.6.4.6c.3.1.6-.1.6-.4s-.1-.6-.4-.6zm-1.7 15.8c-.3-.1-.6.1-.6.4-.1.3.1.6.4.6.3.1.6-.1.6-.4.1-.2-.1-.5-.4-.6zm-2.9 15.9c-.2 0-.4.1-.4.3s.1.4.3.4.4-.1.4-.3-.1-.3-.3-.4zm-4.1 15.5c-.1 0-.3.1-.3.2s.1.3.2.3.3-.1.3-.2 0-.2-.2-.3zm-5.2 15.1c-.1 0-.3.1-.3.2s.1.3.2.3.3-.1.3-.2c.1-.1 0-.2-.2-.3zm-6.2 14.8s-.2 0-.2.1 0 .2.1.2.2 0 .2-.1 0-.2-.1-.2zm-7.4 14.2s-.1 0 0 0c-.1.1-.1.1 0 .1v-.1c0 .1 0 0 0 0zm-8.4 13.6s-.1 0 0 0c-.1.1-.1.1 0 .1v-.1zm-9.4 12.9s-.1 0 0 0c-.1.1-.1.1 0 .1v-.1zm-10.4 12.1c-.1.1-.1.1 0 .1 0 0 .1 0 0-.1.1.1.1 0 0 0zm-11.2 11.4s0-.1 0 0c-.1.1-.1.1 0 .1 0 0 .1 0 0-.1h0zm-12 10.4c-.1.1-.1.1 0 .1 0 .1.1 0 0-.1.1.1.1.1 0 0zm-12.8 9.6c-.1.1-.1.1 0 .1s.1 0 0-.1h0zm-13.4 8.6s-.1 0 0 0c-.1.1-.1.1 0 .1v-.1zm-14.1 7.5c-.1.1 0 .1 0 .1s.1 0 0-.1h0zm-14.6 6.5c-.1.1-.1.1 0 .1 0 0 .1 0 0-.1h0zm-15 5.3c-.1.1-.1.1 0 .1 0 0 .1 0 0-.1.1.1.1 0 0 0zm-31 7.3s-.1 0 0 0c-.1.1-.1.1 0 .1v-.1c0 .1 0 0 0 0zm-246-225.3c-.1.1-.1.1 0 .1v-.1c.1.1.1 0 0 0zm1.7-15.8c-.1.1-.1.1 0 .1 0 0 .1 0 0-.1h0zm-14.5-19.6c-.1.1-.1.1 0 .1 0 0 .1 0 0-.1h0zm4-15.4s-.1 0 0 0c-.1.1-.1.1 0 .1v-.1h0zm5.1-15.1s-.1-.1 0 0c-.1.1-.1.1 0 .1v-.1zm6.1-14.9s-.2 0-.2.1 0 .2.1.2.2 0 .2-.1 0-.2-.1-.2zm7-14.3s-.2 0-.2.1 0 .2.1.2.2 0 .2-.1c.1-.1 0-.2-.1-.2zm8.1-13.8s-.2 0-.2.1 0 .2.1.2.2 0 .2-.1 0-.2-.1-.2zm9-13.2s-.2 0-.2.1 0 .2.1.2.2 0 .2-.1c0 0 0-.1-.1-.2zm9.8-12.4c-.1.1-.1.1 0 .1v-.1c.1.1.1 0 0 0zm10.7-11.9s-.2 0-.2.1 0 .2.1.2.2 0 .2-.1c.1-.1.1-.2-.1-.2zm11.6-11.2c-.2 0-.4.1-.4.3s.1.4.3.4.4-.1.4-.3-.1-.4-.3-.4zm12.2-10.3c-.2 0-.4.1-.4.3s.1.4.3.4.4-.1.4-.3-.1-.3-.3-.4zm12.9-9.4c-.2-.1-.5.1-.5.3-.1.2.1.5.3.5.2.1.5-.1.5-.3.1-.2 0-.5-.3-.5zm13.6-8.4c-.2 0-.4.1-.4.3s.1.4.3.4.4-.1.4-.3-.2-.4-.3-.4zm14.1-7.9c-.4-.1-.8.2-.9.6s.2.8.6.9.8-.2.9-.6-.2-.8-.6-.9zm14.7-6.8a1.2 1.2 0 0 0-1.4.9 1.2 1.2 0 0 0 .9 1.4 1.2 1.2 0 0 0 1.4-.9c.1-.7-.3-1.3-.9-1.4zm15.1-6.3c-1.1-.2-2.1.4-2.3 1.5s.4 2.1 1.5 2.3 2.1-.4 2.3-1.5-.4-2.1-1.5-2.3zm15.3-4.5c-1.1-.2-2.1.4-2.3 1.5s.4 2.1 1.5 2.3 2.1-.4 2.3-1.5c.3-1-.4-2.1-1.5-2.3zm15.5-2.7c-.7-.2-1.4.3-1.5 1-.2.7.3 1.4 1 1.6s1.4-.3 1.5-1c.1-.8-.3-1.5-1-1.6zm15.8-2.4c-.7-.2-1.5.3-1.6 1-.2.7.3 1.5 1 1.6.7.2 1.5-.3 1.6-1 .2-.7-.3-1.4-1-1.6zm15.8-1a1.2 1.2 0 0 0-1.4.9 1.2 1.2 0 0 0 .9 1.4 1.2 1.2 0 0 0 1.4-.9 1.2 1.2 0 0 0-.9-1.4zm15.9.3c-.4-.1-.8.2-.9.6s.2.8.6.9.8-.2.9-.6-.2-.8-.6-.9zm16 .5c-.7-.1-1.3.3-1.5.9-.1.7.3 1.3.9 1.5.7.1 1.3-.3 1.5-.9.2-.7-.2-1.3-.9-1.5zm15.8 2.4c-.5-.1-1 .2-1.1.7s.2 1 .7 1.1 1-.2 1.1-.7-.2-1-.7-1.1zm15.6 3.2c-.5-.1-1 .2-1.1.7s.2 1 .7 1.1 1-.2 1.1-.7c.2-.5-.2-1-.7-1.1zm15.5 4c-.7-.1-1.3.3-1.5.9-.1.7.3 1.3.9 1.5.7.1 1.3-.3 1.5-.9.2-.7-.3-1.4-.9-1.5zm15.1 5c-.8-.2-1.6.3-1.8 1.2-.2.8.3 1.6 1.2 1.8.8.2 1.6-.3 1.8-1.2.1-.8-.4-1.7-1.2-1.8zm14.6 6.5c-.7-.2-1.4.3-1.5 1-.2.7.3 1.4 1 1.5.7.2 1.4-.3 1.5-1 .1-.6-.3-1.3-1-1.5zm14.3 6.6c-1.1-.2-2.2.4-2.5 1.6-.3 1.1.4 2.2 1.6 2.5 1.1.3 2.2-.4 2.5-1.6.2-1.2-.5-2.3-1.6-2.5zm13.7 7.8a2.53 2.53 0 0 0-3 1.9 2.53 2.53 0 0 0 1.9 3 2.53 2.53 0 0 0 3-1.9c.4-1.3-.5-2.7-1.9-3zm13 9.7c-1.1-.2-2.2.5-2.5 1.6s.5 2.2 1.6 2.5 2.2-.4 2.5-1.6c.2-1.2-.5-2.3-1.6-2.5zm12.3 10.1c-1.1-.2-2.2.5-2.5 1.6s.4 2.2 1.6 2.5c1.1.3 2.2-.5 2.5-1.6s-.4-2.3-1.6-2.5zm11.7 10.6c-1.2-.3-2.5.5-2.8 1.8s.5 2.5 1.8 2.8 2.5-.5 2.8-1.8c.3-1.2-.5-2.5-1.8-2.8zm11 11.2c-1.5-.3-3.1.6-3.4 2.2-.3 1.5.6 3.1 2.2 3.4 1.5.3 3.1-.6 3.4-2.2.3-1.5-.7-3-2.2-3.4zm9.7 13.7c-.8-.2-1.6.3-1.8 1.2-.2.8.3 1.6 1.2 1.8.8.2 1.6-.3 1.8-1.2.2-.8-.3-1.6-1.2-1.8zm9.2 13.1c-.8-.2-1.6.3-1.8 1.2-.2.8.3 1.6 1.2 1.8.8.2 1.6-.3 1.8-1.2.1-.8-.4-1.6-1.2-1.8zm8.1 13.9c-.7-.1-1.3.3-1.5.9-.1.7.3 1.3.9 1.5.7.1 1.3-.3 1.5-.9.2-.7-.2-1.3-.9-1.5zm7.3 14.3a1.2 1.2 0 0 0-1.4.9 1.2 1.2 0 0 0 .9 1.4 1.2 1.2 0 0 0 1.4-.9c.1-.6-.3-1.2-.9-1.4zm6.2 14.7a1.2 1.2 0 0 0-1.4.9 1.2 1.2 0 0 0 .9 1.4 1.2 1.2 0 0 0 1.4-.9c.1-.7-.2-1.3-.9-1.4zm5.3 14.9c-.7-.2-1.4.3-1.5 1-.2.7.3 1.4 1 1.6s1.4-.3 1.5-1c.1-.8-.3-1.4-1-1.6zm4.1 15.8c-.5-.1-1 .2-1.1.7s.2 1 .7 1.1 1-.2 1.1-.7-.2-1-.7-1.1zm3 15.9c-.3-.1-.6.1-.7.4s.1.6.4.7.6-.1.7-.4-.1-.6-.4-.7zm2.1 15.8c-.4-.1-.8.2-.8.5-.1.4.2.8.5.8.4.1.8-.2.8-.5.1-.4-.1-.8-.5-.8zm.9 15.9c-.4-.1-.8.2-.8.5-.1.4.2.8.5.8.4.1.8-.2.8-.5s-.1-.7-.5-.8zm-.1 15.9c-.4-.1-.8.2-.8.5-.1.4.2.8.5.8.4.1.8-.2.8-.5.1-.3-.2-.7-.5-.8zm-1.3 16c-.3-.1-.6.1-.7.4s.1.6.4.7.6-.1.7-.4-.1-.6-.4-.7zm-2.5 16c-.2 0-.4.1-.4.3s.1.4.3.4.4-.1.4-.3c0-.1-.1-.3-.3-.4zm-3.4 15.4c-.3-.1-.6.1-.6.4-.1.3.1.6.4.6.3.1.6-.1.6-.4.1-.2-.1-.5-.4-.6zm-4.5 15.3c-.3-.1-.6.1-.6.4-.1.3.1.6.4.6.3.1.6-.1.6-.4.1-.2-.1-.5-.4-.6zm-5.6 15.3s-.3.1-.3.2.1.3.2.3.3-.1.3-.2c0-.2-.1-.3-.2-.3zm-6.6 14.4c-.2 0-.4.1-.4.3s.1.4.3.4.4-.1.4-.3-.1-.4-.3-.4zm-7.6 14.1s-.3.1-.3.2.1.3.2.3.3-.1.3-.2 0-.2-.2-.3zm-8.5 13.7s-.1 0 0 0c-.1.1-.1.1 0 .1v-.1zm-9.4 12.9s-.1-.1 0 0c-.1.1-.1.1 0 .1v-.1zm-10.3 12s-.2 0-.2.1 0 .2.1.2.2 0 .2-.1 0-.1-.1-.2zm-11.1 11.5s-.2 0-.2.1 0 .2.1.2.2 0 .2-.1 0-.2-.1-.2zm-11.9 10.6s-.3.1-.3.2.1.3.2.3.3-.1.3-.2c0-.2-.1-.3-.2-.3zm-12.6 9.8s-.2 0-.2.1 0 .2.1.2.2 0 .2-.1c.1 0 0-.1-.1-.2zm-13.2 9s-.2 0-.2.1 0 .2.1.2.2 0 .2-.1 0-.2-.1-.2zm-13.8 7.9s-.2 0-.2.1 0 .2.1.2.2 0 .2-.1 0-.1-.1-.2zm-14.4 7.2c-.1.1-.1.1 0 .1v-.1h0zm-14.8 6c-.1.1-.1.1 0 .1 0 0 .1 0 0-.1h0zm-15.1 4.9s-.1 0 0 0c-.1.1-.1.1 0 .1v-.1zm-15.5 3.9c-.1.1 0 .1 0 .1v-.1c.1.1.1 0 0 0zM104.5 463.1c-.1.1-.1.1 0 .1s.1.1 0-.1c.1.1.1.1 0 0zm-.3-15.9s-.1 0 0 0c-.1.1-.1.1 0 .1v-.1zm.7-15.9s-.1 0 0 0c-.1.1-.1.1 0 .1v-.1zm1.8-15.9s-.1 0 0 0c-.1.1-.1.1 0 .1v-.1h0zm-14.4-19.6s-.2 0-.2.1 0 .2.1.2.2 0 .2-.1c.1-.1 0-.2-.1-.2zm3.9-15.5s-.2 0-.2.1 0 .2.1.2.2 0 .2-.1c.1-.1 0-.2-.1-.2zm5-15.2c-.1 0-.2 0-.2.1s0 .2.1.2.2 0 .2-.1c0 0 0-.1-.1-.2zm5.9-14.8c-.1 0-.3.1-.3.2s.1.3.2.3.3-.1.3-.2c0-.2-.1-.3-.2-.3zm6.8-14.5s-.3.1-.3.2.1.3.2.3.3-.1.3-.2-.1-.2-.2-.3zm7.8-14.2c-.3-.1-.6.1-.6.4-.1.3.1.6.4.6.3.1.6-.1.6-.4.1-.2-.1-.5-.4-.6zm8.7-13.6c-.4-.1-.8.2-.8.5-.1.4.2.8.5.8s.8-.2.8-.5c.1-.3-.1-.7-.5-.8zm9.3-12.3s-.2 0-.2.1 0 .2.1.2.2 0 .2-.1c.1-.1 0-.2-.1-.2zm10.3-12.2s-.2 0-.2.1 0 .2.1.2.2 0 .2-.1 0-.2-.1-.2zm11.1-11.7c-.2 0-.4.1-.4.3s.1.4.3.4.4-.1.4-.3-.2-.4-.3-.4zm11.7-10.7c-.1 0-.3.1-.3.2s.1.3.2.3.3-.1.3-.2-.1-.3-.2-.3zm12.4-10.1c-.2 0-.4.1-.4.3s.1.4.3.4.4-.1.4-.3-.1-.4-.3-.4zm13.1-9.6c-.4-.1-.8.2-.9.6s.2.8.6.9.8-.2.9-.6-.2-.9-.6-.9zm13.7-8.7a1.11 1.11 0 0 0-1.3.8 1.11 1.11 0 0 0 .8 1.3 1.11 1.11 0 0 0 1.3-.8c.1-.6-.3-1.2-.8-1.3zm14-7.2c-.4-.1-.8.2-.9.6s.2.8.6.9.8-.2.9-.6-.2-.8-.6-.9zm14.7-7c-.7-.1-1.3.3-1.5.9-.1.7.3 1.3.9 1.5.7.1 1.3-.3 1.5-.9.2-.7-.3-1.3-.9-1.5zm15-6c-.9-.2-1.8.4-2 1.3s.4 1.8 1.3 2 1.8-.4 2-1.3-.4-1.8-1.3-2zm15.4-5.3c-1.3-.3-2.5.5-2.8 1.8s.5 2.5 1.8 2.8 2.5-.5 2.8-1.8-.5-2.5-1.8-2.8zm15.4-3c-.9-.2-1.8.4-2 1.3s.4 1.8 1.3 2 1.8-.4 2-1.3-.4-1.8-1.3-2zm15.9-3.5a2.53 2.53 0 0 0-3 1.9 2.53 2.53 0 0 0 1.9 3 2.53 2.53 0 0 0 3-1.9c.3-1.3-.5-2.7-1.9-3zm15.9-1.6a2.53 2.53 0 0 0-3 1.9 2.53 2.53 0 0 0 1.9 3 2.53 2.53 0 0 0 3-1.9c.3-1.3-.6-2.7-1.9-3zm15.7.4c-.8-.2-1.6.3-1.8 1.2-.2.8.3 1.6 1.2 1.8.8.2 1.6-.3 1.8-1.2.1-.8-.4-1.6-1.2-1.8zm16 .3c-.9-.2-1.8.4-2 1.3s.4 1.8 1.3 2 1.8-.4 2-1.3c.1-1-.4-1.8-1.3-2zm15.9 1.1c-1.1-.2-2.1.4-2.3 1.5s.4 2.1 1.5 2.3 2.1-.4 2.3-1.5c.2-1-.4-2.1-1.5-2.3zm15.7 3c-.7-.2-1.5.3-1.6 1-.2.7.3 1.5 1 1.6.7.2 1.5-.3 1.6-1 .2-.7-.3-1.4-1-1.6zm15.6 3a2 2 0 0 0-2.3 1.4 2 2 0 0 0 1.4 2.3 2 2 0 0 0 2.3-1.4c.3-1.1-.3-2.1-1.4-2.3zm15.4 4.2a2.03 2.03 0 1 0-.9 4.1 2.03 2.03 0 0 0 2.5-1.6c.3-1.1-.4-2.3-1.6-2.5zm15 5.4a2.03 2.03 0 1 0-.9 4.1 2.03 2.03 0 0 0 2.5-1.6c.3-1.1-.4-2.2-1.6-2.5zm14.7 6.2c-1.2-.3-2.4.5-2.7 1.7s.5 2.4 1.7 2.7 2.4-.5 2.7-1.7-.5-2.4-1.7-2.7zm14.3 6.6c-1.6-.4-3.2.6-3.5 2.2-.4 1.6.6 3.2 2.2 3.5 1.6.4 3.2-.6 3.5-2.2.4-1.5-.6-3.1-2.2-3.5zm13.8 7.8a3.32 3.32 0 1 0-1.4 6.6 3.32 3.32 0 0 0 4-2.6c.4-1.8-.8-3.6-2.6-4zm13 9.6c-1.5-.3-3 .6-3.3 2.1s.6 3 2.1 3.3 3-.6 3.3-2.1-.6-2.9-2.1-3.3zm12.8 8.6c-2.2-.5-4.4.9-4.9 3.1s.9 4.4 3.1 4.9 4.4-.9 4.9-3.1-.9-4.4-3.1-4.9zm11.8 11.2c-1.9-.4-3.8.8-4.2 2.7s.8 3.8 2.7 4.2 3.8-.8 4.2-2.7-.8-3.8-2.7-4.2zm11.2 11.2c-2-.4-4 .8-4.4 2.8s.8 4 2.8 4.4 4-.8 4.4-2.8c.5-2-.8-3.9-2.8-4.4zm10.3 12.6c-1.8-.4-3.5.7-3.9 2.5s.7 3.5 2.5 3.9 3.5-.7 3.9-2.5-.7-3.6-2.5-3.9zm9.7 12.5c-1.9-.4-3.7.8-4.1 2.6-.4 1.9.8 3.7 2.6 4.1 1.9.4 3.7-.8 4.1-2.6.4-1.9-.8-3.7-2.6-4.1zm8.5 14.5c-1.2-.3-2.4.5-2.7 1.7s.5 2.4 1.7 2.7 2.4-.5 2.7-1.7c.3-1.3-.5-2.5-1.7-2.7zm7.9 14.2a2 2 0 0 0-2.3 1.4 2 2 0 0 0 1.4 2.3 2 2 0 0 0 2.3-1.4c.2-1.1-.4-2.1-1.4-2.3zm7 14.3a2 2 0 0 0-2.3 1.4 2 2 0 0 0 1.4 2.3 2 2 0 0 0 2.3-1.4c.2-1.1-.4-2.1-1.4-2.3zm6 15c-.9-.2-1.8.4-2 1.3s.4 1.8 1.3 2 1.8-.4 2-1.3-.4-1.8-1.3-2zm5 15.4c-.7-.2-1.4.3-1.5 1-.2.7.3 1.4 1 1.5s1.4-.3 1.5-1c.2-.6-.3-1.3-1-1.5zm4.2 15.3c-.8-.2-1.6.3-1.8 1.1s.3 1.6 1.1 1.8 1.6-.3 1.8-1.1c.2-.9-.3-1.7-1.1-1.8zm3.2 15.6c-.8-.2-1.6.3-1.8 1.1s.3 1.6 1.1 1.8 1.6-.3 1.8-1.1-.3-1.6-1.1-1.8zm2.1 15.8c-.8-.2-1.6.3-1.8 1.2-.2.8.3 1.6 1.2 1.8.8.2 1.6-.3 1.8-1.2.2-.8-.4-1.7-1.2-1.8zm1.1 16.3a1.2 1.2 0 0 0-1.4.9 1.2 1.2 0 0 0 .9 1.4 1.2 1.2 0 0 0 1.4-.9c.1-.7-.3-1.3-.9-1.4zm.1 16a1.11 1.11 0 0 0-1.3.8 1.11 1.11 0 0 0 .8 1.3 1.11 1.11 0 0 0 1.3-.8c.2-.6-.3-1.2-.8-1.3zm-.9 15.7c-.7-.1-1.3.3-1.5.9-.1.7.3 1.3.9 1.5.7.1 1.3-.3 1.5-.9s-.3-1.3-.9-1.5zm-2 16.1c-.5-.1-1 .2-1.1.7s.2 1 .7 1.1 1-.2 1.1-.7c.1-.4-.2-1-.7-1.1zm-3 15.8c-.5-.1-1 .2-1.1.7s.2 1 .7 1.1 1-.2 1.1-.7-.2-1-.7-1.1zm-4 15.5c-.4-.1-.8.2-.9.6s.2.8.6.9.8-.2.9-.6-.2-.8-.6-.9zm-4.9 15.2c-.4-.1-.8.2-.9.6s.2.8.6.9.8-.2.9-.6-.2-.8-.6-.9zm-5.9 15c-.3-.1-.6.1-.7.4s.1.6.4.7.6-.1.7-.4-.1-.6-.4-.7zm-6.9 14.7c-.2 0-.4.1-.4.3s.1.4.3.4.4-.1.4-.3-.1-.4-.3-.4zm-7.7 13.7c-.3-.1-.6.1-.7.4s.1.6.4.7.6-.1.7-.4-.1-.6-.4-.7zm-8.7 13.7c-.1 0-.3.1-.3.2s.1.3.2.3.3-.1.3-.2-.1-.2-.2-.3zm-9.4 12.8c-.2 0-.4.1-.4.3s.1.4.3.4.4-.1.4-.3-.2-.4-.3-.4zm-10.3 12.3s-.2 0-.2.1 0 .2.1.2.2 0 .2-.1c0 0 0-.1-.1-.2zm-11 11.4c-.2 0-.4.1-.4.3s.1.4.3.4.4-.1.4-.3-.1-.4-.3-.4zM497.8 638s-.3.1-.3.2.1.3.2.3.3-.1.3-.2-.1-.3-.2-.3zm-12.4 10.1s-.2 0-.2.1 0 .2.1.2.2 0 .2-.1c.1-.1 0-.2-.1-.2zm-13 9.2s-.2 0-.2.1 0 .2.1.2.2 0 .2-.1 0-.2-.1-.2zm-13.7 8.5c-.1.1 0 .1 0 .1.1 0 .1 0 0-.1h0zM86.5 443.3s-.1 0 0 0c-.1.1-.1.1 0 .1v-.1zm.9-15.9s-.1 0 0 0c-.1.1 0 .1 0 .1v-.1zm1.9-15.8c-.1.1-.1.1 0 .1v-.1h0zm-14.4-19.7s-.2 0-.2.1 0 .2.1.2.2 0 .2-.1c.1 0 .1-.1-.1-.2zm4-15.8c-.3-.1-.6.1-.6.4-.1.3.1.6.4.6.3.1.6-.1.6-.4.1-.2-.1-.5-.4-.6zm4.8-15.1c-.2-.1-.5.1-.5.3-.1.2.1.5.3.5.2.1.5-.1.5-.3.1-.2 0-.4-.3-.5zm5.8-14.9c-.2-.1-.5.1-.5.3-.1.2.1.5.3.5.2.1.5-.1.5-.3a.55.55 0 0 0-.3-.5zm6.6-14.4c-.2 0-.4.1-.4.3s.1.4.3.4.4-.1.4-.3-.1-.4-.3-.4zm7.6-14.8a1.2 1.2 0 0 0-1.4.9 1.2 1.2 0 0 0 .9 1.4 1.2 1.2 0 0 0 1.4-.9c.1-.7-.3-1.3-.9-1.4zm8.5-14.5c-1.1-.2-2.1.4-2.3 1.5s.4 2.1 1.5 2.3 2.1-.4 2.3-1.5c.2-1-.4-2.1-1.5-2.3zm8.8-11.9c-.4-.1-.8.2-.8.5-.1.4.2.8.5.8.4.1.8-.2.8-.5.1-.3-.1-.7-.5-.8zm10.1-13.3c-.8-.2-1.6.3-1.8 1.2-.2.8.3 1.6 1.2 1.8.8.2 1.6-.3 1.8-1.2.1-.8-.4-1.6-1.2-1.8zm10.5-11.7c-.7-.1-1.3.3-1.5.9-.1.7.3 1.3.9 1.5.7.1 1.3-.3 1.5-.9s-.2-1.3-.9-1.5zm11.2-10.5c-.3-.1-.6.1-.6.4-.1.3.1.6.4.6.3.1.6-.1.6-.4s-.2-.6-.4-.6zm12-11c-.5-.1-1 .2-1.1.7s.2 1 .7 1.1 1-.2 1.1-.7-.2-1-.7-1.1zm12.5-9.8c-.5-.1-1 .2-1.1.7s.2 1 .7 1.1 1-.2 1.1-.7-.2-1-.7-1.1zm13.1-9.1c-.5-.1-1 .2-1.1.7s.2 1 .7 1.1 1-.2 1.1-.7-.2-.9-.7-1.1zm13.8-8.8c-.8-.2-1.6.3-1.8 1.1s.3 1.6 1.1 1.8 1.6-.3 1.8-1.1-.3-1.6-1.1-1.8zm14.2-7.6c-.9-.2-1.8.4-2 1.3s.4 1.8 1.3 2 1.8-.4 2-1.3c.1-.9-.4-1.8-1.3-2zm14.6-7.2c-1.2-.3-2.4.5-2.7 1.7s.5 2.4 1.7 2.7 2.4-.5 2.7-1.7-.5-2.4-1.7-2.7zm14.9-5.7c-1.2-.3-2.4.5-2.7 1.7s.5 2.4 1.7 2.7 2.4-.5 2.7-1.7-.5-2.4-1.7-2.7zm15.5-5.8a3.32 3.32 0 1 0-1.4 6.6c1.9.4 3.6-.7 4-2.6s-.8-3.6-2.6-4zm15.4-3.6c-1.6-.4-3.2.7-3.6 2.3s.7 3.2 2.3 3.6 3.2-.7 3.6-2.3a3.13 3.13 0 0 0-2.3-3.6zm15.6-2.5a2.53 2.53 0 0 0-3 1.9 2.53 2.53 0 0 0 1.9 3 2.53 2.53 0 0 0 3-1.9c.3-1.3-.6-2.7-1.9-3zm15.8-2a2.53 2.53 0 0 0-3 1.9 2.53 2.53 0 0 0 1.9 3 2.53 2.53 0 0 0 3-1.9c.3-1.3-.5-2.7-1.9-3zm15.9-1a2.53 2.53 0 0 0-3 1.9 2.53 2.53 0 0 0 1.9 3 2.53 2.53 0 0 0 3-1.9c.3-1.4-.5-2.7-1.9-3zm15.9.3c-1.1-.3-2.2.4-2.5 1.6-.3 1.1.4 2.2 1.6 2.5 1.1.3 2.2-.4 2.5-1.6.2-1.1-.5-2.2-1.6-2.5zm15.9 1c-1.1-.2-2.1.4-2.3 1.5s.4 2.1 1.5 2.3 2.1-.4 2.3-1.5c.2-1-.5-2-1.5-2.3zm15.9 1.7a2.03 2.03 0 1 0-.9 4.1 2.03 2.03 0 1 0 .9-4.1zm15.7 2.4c-1.3-.3-2.5.5-2.8 1.8s.5 2.5 1.8 2.8 2.5-.5 2.8-1.8c.3-1.2-.5-2.5-1.8-2.8zm15.7 3.1c-1.6-.4-3.2.7-3.6 2.3s.7 3.2 2.3 3.6 3.2-.7 3.6-2.3-.7-3.2-2.3-3.6zm15.3 4.6c-1.6-.4-3.2.7-3.6 2.3s.7 3.2 2.3 3.6 3.2-.7 3.6-2.3a3.13 3.13 0 0 0-2.3-3.6zm15 5.2c-1.8-.4-3.6.7-4 2.5s.7 3.6 2.5 4 3.6-.7 4-2.5-.7-3.6-2.5-4zm14.7 6.1c-2-.4-3.9.8-4.4 2.8s.8 3.9 2.8 4.4 3.9-.8 4.4-2.8c.4-2-.8-4-2.8-4.4zm14.2 7.3c-2-.4-3.9.8-4.4 2.8-.4 2 .8 3.9 2.8 4.4 2 .4 3.9-.8 4.4-2.8s-.8-4-2.8-4.4zm13.9 7.6c-2.2-.5-4.4.9-4.9 3.1s.9 4.4 3.1 4.9 4.4-.9 4.9-3.1-.9-4.4-3.1-4.9zm13.2 9.1c-2.1-.5-4.2.9-4.7 3s.9 4.2 3 4.7 4.2-.9 4.7-3c.4-2.2-.9-4.3-3-4.7zm12.8 9c-2.5-.6-4.9 1-5.5 3.5s1 4.9 3.5 5.5 4.9-1 5.5-3.5c.5-2.5-1-4.9-3.5-5.5zm12 10.9c-2.2-.5-4.4.9-4.9 3.1s.9 4.4 3.1 4.9 4.4-.9 4.9-3.1-.9-4.4-3.1-4.9zm11.4 10.9c-2.4-.5-4.7 1-5.2 3.3-.5 2.4 1 4.7 3.3 5.2s4.7-1 5.2-3.3c.6-2.4-.9-4.7-3.3-5.2zm10.7 12.2c-2.1-.5-4.2.9-4.7 3s.9 4.2 3 4.7 4.2-.9 4.7-3-.9-4.3-3-4.7zm10.2 11.6c-2.6-.6-5.1 1-5.7 3.6s1 5.1 3.6 5.7 5.1-1 5.7-3.6-1-5.1-3.6-5.7zm9.2 13.4c-2.4-.5-4.7 1-5.2 3.3-.5 2.4 1 4.7 3.3 5.2 2.4.5 4.7-1 5.2-3.3.5-2.4-1-4.7-3.3-5.2zm8.5 13.5c-2.4-.5-4.7 1-5.2 3.3-.5 2.4 1 4.7 3.3 5.2 2.4.5 4.7-1 5.2-3.3.5-2.4-1-4.7-3.3-5.2zm7.4 15.2c-1.7-.4-3.4.7-3.7 2.4-.4 1.7.7 3.4 2.4 3.7 1.7.4 3.4-.7 3.7-2.4s-.7-3.3-2.4-3.7zm6.6 15a2.53 2.53 0 0 0-3 1.9 2.53 2.53 0 0 0 1.9 3 2.53 2.53 0 0 0 3-1.9c.3-1.4-.5-2.7-1.9-3zm6 14.6c-1.5-.3-2.9.6-3.2 2.1s.6 2.9 2.1 3.2 2.9-.6 3.2-2.1c.3-1.4-.7-2.8-2.1-3.2zm5 15.2c-1.5-.3-2.9.6-3.2 2.1s.6 2.9 2.1 3.2 2.9-.6 3.2-2.1-.6-2.9-2.1-3.2zm4 15.8c-1.2-.3-2.5.5-2.8 1.8s.5 2.5 1.8 2.8 2.5-.5 2.8-1.8-.5-2.5-1.8-2.8zm3.1 16a2 2 0 0 0-2.3 1.4 2 2 0 0 0 1.4 2.3 2 2 0 0 0 2.3-1.4c.3-1-.4-2-1.4-2.3zm2.2 16.2c-.8-.2-1.6.3-1.8 1.2s.3 1.6 1.2 1.8c.8.2 1.6-.3 1.8-1.2.1-.8-.4-1.7-1.2-1.8zm1.3 15.5a2 2 0 0 0-2.3 1.4 2 2 0 0 0 1.4 2.3c1 .3 2-.4 2.3-1.4s-.3-2.1-1.4-2.3zm.2 16.6c-.7-.1-1.3.3-1.5.9-.1.7.3 1.3.9 1.5.7.1 1.3-.3 1.5-.9.2-.7-.2-1.3-.9-1.5zm-.6 15.9c-.7-.1-1.3.3-1.5.9-.1.7.3 1.3.9 1.5s1.3-.3 1.5-.9c.2-.7-.2-1.3-.9-1.5zm-1.5 15.9c-.7-.2-1.4.3-1.5 1-.2.7.3 1.4 1 1.5.7.2 1.4-.3 1.5-1s-.3-1.4-1-1.5zm-2.6 15.8c-.7-.1-1.3.3-1.5.9-.1.7.3 1.3.9 1.5.7.1 1.3-.3 1.5-.9s-.2-1.4-.9-1.5zm-3.4 15.6a1.2 1.2 0 0 0-1.4.9 1.2 1.2 0 0 0 .9 1.4 1.2 1.2 0 0 0 1.4-.9c.1-.6-.3-1.2-.9-1.4zm-4.5 15.6c-.5-.1-1 .2-1.1.7s.2 1 .7 1.1 1-.2 1.1-.7-.2-1-.7-1.1zm-5.2 15c-.5-.1-1 .2-1.1.7s.2 1 .7 1.1 1-.2 1.1-.7-.2-1-.7-1.1zm-6.2 14.8c-.5-.1-1 .2-1.1.7s.2 1 .7 1.1 1-.2 1.1-.7-.2-1-.7-1.1zm-7.1 14.3c-.5-.1-1 .2-1.1.7s.2 1 .7 1.1 1-.2 1.1-.7-.2-1-.7-1.1zm-7.9 14.1c-.3-.1-.6.1-.7.5-.1.3.1.6.4.7s.6-.1.7-.4-.1-.7-.4-.8zm-8.7 13.3c-.4-.1-.8.2-.8.5-.1.4.2.8.5.8.4.1.8-.2.8-.5.1-.3-.1-.7-.5-.8zm-9.4 12.5a1.11 1.11 0 0 0-1.3.8 1.11 1.11 0 0 0 .8 1.3 1.11 1.11 0 0 0 1.3-.8c.1-.6-.2-1.2-.8-1.3zm-10.4 12.7c-.3-.1-.6.1-.6.4-.1.3.1.6.4.6.3.1.6-.1.6-.4.1-.2-.1-.5-.4-.6zM523.7 638c-.3-.1-.6.1-.6.4-.1.3.1.6.4.6.3.1.6-.1.6-.4.1-.2-.1-.5-.4-.6zM512 649.3s-.2 0-.2.1 0 .2.1.2.2 0 .2-.1c.1-.1 0-.2-.1-.2zm-12.3 10.1s-.3.1-.3.2.1.3.2.3.3-.1.3-.2 0-.2-.2-.3zM66.3 357.2c-.2 0-.4.1-.4.3s.1.4.3.4.4-.1.4-.3c0-.1-.2-.3-.3-.4zm5.6-15.1c-.3-.1-.6.1-.6.4-.1.3.1.6.4.6.3.1.6-.1.6-.4.1-.3-.1-.6-.4-.6zm6.4-14.5c-.2-.1-.5.1-.5.3-.1.2.1.5.3.5.2.1.5-.1.5-.3.1-.2-.1-.4-.3-.5zm7.3-14.5c-.4-.1-.8.2-.8.5-.1.4.2.8.5.8.4.1.8-.2.8-.5.1-.3-.1-.7-.5-.8zm8.2-14.4c-.7-.2-1.5.3-1.6 1-.2.7.3 1.5 1 1.6.7.2 1.5-.3 1.6-1 .2-.7-.3-1.5-1-1.6zm8.9-14c-1.1-.2-2.2.5-2.5 1.6s.4 2.2 1.6 2.5c1.1.3 2.2-.5 2.5-1.6.2-1.2-.5-2.3-1.6-2.5zm9.5-13.1c-1.2-.3-2.5.5-2.8 1.7s.5 2.5 1.8 2.8 2.5-.5 2.8-1.8c.3-1.2-.5-2.4-1.8-2.7zm10.5-13.1c-1.7-.4-3.5.7-3.9 2.5s.7 3.5 2.5 3.9 3.5-.7 3.9-2.5c.3-1.8-.8-3.5-2.5-3.9zm10.4-9.9c-.7-.2-1.5.3-1.6 1-.2.7.3 1.5 1 1.6.7.2 1.5-.3 1.6-1 .2-.7-.2-1.4-1-1.6zm11.6-11.2c-.8-.2-1.6.3-1.8 1.2-.2.8.3 1.6 1.2 1.8.8.2 1.6-.3 1.8-1.2.2-.8-.4-1.6-1.2-1.8zm12-9.7c-.5-.1-1 .2-1.1.7s.2 1 .7 1.1 1-.2 1.1-.7-.2-1-.7-1.1zm12.8-10.3c-.8-.2-1.6.3-1.8 1.2-.2.8.3 1.6 1.2 1.8.8.2 1.6-.3 1.8-1.2.2-.8-.4-1.6-1.2-1.8zm13.3-9.4c-1.1-.2-2.1.4-2.3 1.5s.4 2.1 1.5 2.3 2.1-.4 2.3-1.5c.2-1-.4-2-1.5-2.3zm13.6-7.7c-.8-.2-1.6.3-1.8 1.1s.3 1.6 1.1 1.8 1.6-.3 1.8-1.1-.3-1.6-1.1-1.8zm14.4-8.8c-1.6-.4-3.2.6-3.5 2.2-.4 1.6.6 3.2 2.2 3.5 1.6.4 3.2-.6 3.5-2.2.4-1.6-.6-3.2-2.2-3.5zm14.6-6.6c-1.6-.4-3.2.6-3.5 2.2-.4 1.6.6 3.2 2.2 3.5 1.6.4 3.2-.6 3.5-2.2.4-1.6-.6-3.2-2.2-3.5zm14.8-5.9c-1.6-.4-3.2.7-3.6 2.3s.7 3.2 2.3 3.6 3.2-.7 3.6-2.3-.6-3.2-2.3-3.6zm15.3-5.3a3.32 3.32 0 0 0-1.4 6.6 3.32 3.32 0 0 0 4-2.6c.4-1.8-.8-3.6-2.6-4zm15.6-4.8c-2.2-.5-4.4.9-4.9 3.1s.9 4.4 3.1 4.9 4.4-.9 4.9-3.1-.9-4.4-3.1-4.9zm15.5-2.5c-1.9-.4-3.7.8-4.1 2.6-.4 1.9.8 3.7 2.6 4.1 1.9.4 3.7-.8 4.1-2.6.4-1.9-.8-3.7-2.6-4.1zm15.7-2.1c-1.7-.4-3.4.7-3.7 2.4s.7 3.4 2.4 3.7c1.7.4 3.4-.7 3.7-2.4.3-1.6-.7-3.3-2.4-3.7zm15.9-1.6a3.32 3.32 0 0 0-4 2.6c-.4 1.9.7 3.6 2.6 4a3.32 3.32 0 0 0 4-2.6c.4-1.8-.8-3.6-2.6-4zm16-.9c-2-.4-3.9.8-4.4 2.8-.4 2 .8 3.9 2.8 4.4 2 .4 3.9-.8 4.4-2.8.4-2-.8-3.9-2.8-4.4zm15.9.6c-1.9-.4-3.7.8-4.1 2.6-.4 1.9.8 3.7 2.6 4.1 1.9.4 3.7-.8 4.1-2.6s-.7-3.7-2.6-4.1zm15.9 1.3c-1.8-.4-3.7.8-4.1 2.6s.8 3.7 2.6 4.1 3.7-.8 4.1-2.6c.5-1.9-.7-3.7-2.6-4.1zm16 1.6c-2.1-.5-4.3.9-4.7 3-.5 2.1.9 4.2 3 4.7 2.2.5 4.2-.9 4.7-3 .4-2.2-.9-4.3-3-4.7zm15.6 3c-2.1-.5-4.2.9-4.7 3s.9 4.2 3 4.7 4.3-.9 4.7-3c.5-2.1-.8-4.2-3-4.7zm15.6 3.6a4.15 4.15 0 1 0-1.8 8.2 4.15 4.15 0 0 0 5-3.2c.4-2.2-1-4.5-3.2-5zm15.2 4.9c-2.2-.5-4.4.9-4.9 3.1s.9 4.4 3.1 4.9 4.4-.9 4.9-3.1c.4-2.2-.9-4.4-3.1-4.9zm15 5.1c-2.5-.6-5 1-5.5 3.5s1 5 3.5 5.5 5-1 5.5-3.5c.6-2.5-1-5-3.5-5.5zm14.6 6.7c-2.3-.5-4.6.9-5.2 3.3-.5 2.3.9 4.6 3.3 5.2 2.3.5 4.6-.9 5.2-3.3.5-2.4-1-4.7-3.3-5.2zm14.2 7.1c-2.4-.5-4.8 1-5.3 3.4s1 4.8 3.4 5.3 4.8-1 5.3-3.4-1-4.8-3.4-5.3zm13.8 8.1c-2.3-.5-4.6.9-5.2 3.3-.5 2.3.9 4.6 3.3 5.2 2.3.5 4.6-.9 5.2-3.3.5-2.4-1-4.6-3.3-5.2zm13.3 8.8c-2.3-.5-4.6.9-5.2 3.3-.5 2.3.9 4.6 3.3 5.2 2.3.5 4.6-.9 5.2-3.3.5-2.4-1-4.7-3.3-5.2zm12.9 9.2c-2.5-.6-4.9 1-5.5 3.5s1 4.9 3.5 5.5 4.9-1 5.5-3.5c.5-2.5-1-4.9-3.5-5.5zm12.2 10.3c-2.5-.5-4.9 1-5.5 3.5s1 4.9 3.5 5.5 4.9-1 5.5-3.5-1-5-3.5-5.5zm11.7 10.5c-2.7-.6-5.3 1.1-5.9 3.8s1.1 5.3 3.8 5.9 5.3-1.1 5.9-3.8-1.1-5.3-3.8-5.9zm11 12.1c-2.4-.5-4.7 1-5.2 3.3-.5 2.4 1 4.7 3.3 5.2 2.4.5 4.7-1 5.2-3.3s-1-4.7-3.3-5.2zm10.4 11.9c-2.5-.6-4.9 1-5.5 3.5s1 4.9 3.5 5.5 4.9-1 5.5-3.5c.5-2.5-1.1-5-3.5-5.5zm9.7 12.4c-2.6-.6-5.3 1.1-5.8 3.7-.6 2.6 1.1 5.3 3.7 5.8 2.6.6 5.3-1.1 5.8-3.7.6-2.6-1-5.2-3.7-5.8zm9 13c-2.7-.6-5.5 1.1-6.1 3.9s1.1 5.5 3.9 6.1c2.7.6 5.5-1.1 6.1-3.9a5.15 5.15 0 0 0-3.9-6.1zm8.2 13.9c-2.7-.6-5.3 1.1-5.8 3.7-.6 2.6 1.1 5.3 3.7 5.8 2.7.6 5.3-1.1 5.8-3.7.6-2.6-1.1-5.2-3.7-5.8zm7.2 14.8a4.15 4.15 0 1 0-1.8 8.2 4.15 4.15 0 1 0 1.8-8.2zm6.6 14.5a4.15 4.15 0 1 0-1.8 8.2 4.15 4.15 0 0 0 5-3.2c.5-2.2-.9-4.5-3.2-5zm5.8 15c-2.2-.5-4.4.9-4.9 3.1s.9 4.4 3.1 4.9 4.4-.9 4.9-3.1-.9-4.4-3.1-4.9zm4.7 16.2c-1.6-.4-3.2.7-3.6 2.3s.7 3.2 2.3 3.6 3.2-.7 3.6-2.3a3.13 3.13 0 0 0-2.3-3.6zm4.1 15.2c-1.8-.4-3.5.7-3.9 2.5-.4 1.7.7 3.5 2.5 3.9s3.5-.7 3.9-2.5-.7-3.5-2.5-3.9zm3.2 15.6c-1.8-.4-3.5.7-3.9 2.5s.7 3.5 2.5 3.9 3.5-.7 3.9-2.5-.7-3.5-2.5-3.9zm2.2 16.4a2.62 2.62 0 0 0-3.1 2 2.62 2.62 0 0 0 2 3.1 2.62 2.62 0 0 0 3.1-2c.3-1.4-.5-2.7-2-3.1zm1.5 15.7c-1.5-.3-3.1.6-3.4 2.2-.3 1.5.6 3.1 2.2 3.4 1.5.3 3.1-.6 3.4-2.2s-.6-3.1-2.2-3.4zm.4 16.7c-1.1-.2-2.2.5-2.5 1.6s.5 2.2 1.6 2.5 2.2-.5 2.5-1.6c.2-1.2-.5-2.3-1.6-2.5zm-.4 16.1a2 2 0 0 0-2.3 1.4 2 2 0 0 0 1.4 2.3 2 2 0 0 0 2.3-1.4c.3-1-.3-2.1-1.4-2.3zm-1.2 15.9c-1.1-.2-2.1.4-2.3 1.5s.4 2.1 1.5 2.3 2.1-.4 2.3-1.5-.4-2.1-1.5-2.3zm-2.2 15.8a2 2 0 0 0-2.3 1.4 2 2 0 0 0 1.4 2.3 2 2 0 0 0 2.3-1.4c.3-1.1-.3-2.1-1.4-2.3zm-2.9 15.6c-1.1-.2-2.1.4-2.3 1.5s.4 2.1 1.5 2.3 2.1-.4 2.3-1.5c.2-1-.5-2-1.5-2.3zm-4 16c-.8-.2-1.6.3-1.8 1.1s.3 1.6 1.1 1.8 1.6-.3 1.8-1.1c.2-.9-.3-1.7-1.1-1.8zm-4.8 15.2c-.8-.2-1.6.3-1.8 1.1s.3 1.6 1.1 1.8 1.6-.3 1.8-1.1c.2-.9-.3-1.6-1.1-1.8zm-5.6 14.9c-.8-.2-1.6.3-1.8 1.1s.3 1.6 1.1 1.8 1.6-.3 1.8-1.1-.3-1.6-1.1-1.8zm-6.5 15.1a1.11 1.11 0 0 0-1.3.8 1.11 1.11 0 0 0 .8 1.3 1.11 1.11 0 0 0 1.3-.8c.1-.7-.2-1.2-.8-1.3zm-7.2 13.9c-.7-.2-1.4.3-1.5 1-.2.7.3 1.4 1 1.5s1.4-.3 1.5-1c.2-.6-.3-1.3-1-1.5zm-8.1 14.3c-.4-.1-.8.2-.9.6s.2.8.6.9.8-.2.9-.6-.2-.8-.6-.9zm-8.8 13.5c-.3-.1-.6.1-.7.4s.1.6.4.7.6-.1.7-.4-.1-.6-.4-.7zm-9.5 12.6c-.4-.1-.8.2-.9.6s.2.8.6.9.8-.2.9-.6-.2-.8-.6-.9zm-10.2 12.3c-.4-.1-.8.2-.9.6s.2.8.6.9.8-.2.9-.6-.2-.8-.6-.9zm-11 12.2s-.3.1-.3.2.1.3.2.3.3-.1.3-.2c0-.2-.1-.3-.2-.3zm-11.6 11.2c-.1.1-.1.1 0 .1v-.1h0zM60.6 323.4c-.3-.1-.6.1-.7.4s.1.6.5.7.6-.1.7-.4c0-.3-.2-.6-.5-.7zm7-14.2c-.3-.1-.6.1-.6.4-.1.3.1.6.4.6.3.1.6-.1.6-.4.1-.3-.1-.6-.4-.6zm7.7-13.8c-.2 0-.4.1-.4.3s.1.4.3.4.4-.1.4-.3-.1-.3-.3-.4zm8.5-13.5c-.2 0-.4.1-.4.3s.1.4.3.4.4-.1.4-.3-.1-.3-.3-.4zm9.6-14.7c-1.1-.2-2.2.4-2.5 1.6-.3 1.1.5 2.2 1.6 2.5s2.2-.5 2.5-1.6c.2-1.2-.5-2.3-1.6-2.5zm10.1-13.7c-1.8-.4-3.6.7-4 2.5s.7 3.6 2.5 4 3.6-.7 4-2.5c.4-1.9-.7-3.6-2.5-4zm10.4-11.5c-1.5-.3-2.9.6-3.2 2.1s.6 2.9 2.1 3.2 2.9-.6 3.2-2.1c.3-1.4-.6-2.9-2.1-3.2zm11.1-11.4c-1.5-.3-2.9.6-3.2 2.1s.6 2.9 2.1 3.2 2.9-.6 3.2-2.1c.3-1.4-.6-2.9-2.1-3.2zm11.5-9.7c-.8-.2-1.6.3-1.8 1.2-.2.8.3 1.6 1.2 1.8.8.2 1.6-.3 1.8-1.2.1-.8-.4-1.6-1.2-1.8zm12.4-10.9c-1.3-.3-2.5.5-2.8 1.8s.5 2.5 1.8 2.8 2.5-.5 2.8-1.8-.5-2.6-1.8-2.8zm12.8-9.6c-1.3-.3-2.5.5-2.8 1.8s.5 2.5 1.8 2.8 2.5-.5 2.8-1.8c.3-1.2-.5-2.5-1.8-2.8zm13.3-8.8c-1.3-.3-2.5.5-2.8 1.8s.5 2.5 1.8 2.8 2.5-.5 2.8-1.8-.5-2.5-1.8-2.8zm13.9-8.7c-1.6-.4-3.2.6-3.5 2.2-.4 1.6.6 3.2 2.2 3.5 1.6.4 3.2-.6 3.5-2.2.4-1.6-.6-3.2-2.2-3.5zm14.3-8.3c-2.1-.5-4.1.8-4.6 2.9s.8 4.1 2.9 4.6 4.1-.8 4.6-2.9-.8-4.1-2.9-4.6zm14.5-6.6c-2.1-.5-4.1.8-4.6 2.9s.8 4.1 2.9 4.6 4.1-.8 4.6-2.9-.8-4.1-2.9-4.6zm15-6.3c-2.3-.5-4.6.9-5.2 3.3s.9 4.6 3.3 5.2c2.3.5 4.6-.9 5.2-3.3.5-2.4-1-4.7-3.3-5.2zm15.1-5.1c-2.4-.5-4.7 1-5.2 3.3-.5 2.4 1 4.7 3.3 5.2 2.4.5 4.7-1 5.2-3.3.6-2.4-.9-4.7-3.3-5.2zm15.5-4.6c-2.5-.6-5 1-5.6 3.5s1 5 3.5 5.6 5-1 5.6-3.5-1-5-3.5-5.6zm15.5-3.4c-2.5-.6-5 1-5.6 3.5s1 5 3.5 5.6 5-1 5.6-3.5c.6-2.6-.9-5-3.5-5.6zm15.8-2.7c-2.5-.6-5.1 1-5.6 3.6-.6 2.6 1 5.1 3.6 5.7 2.5.6 5.1-1 5.6-3.6s-1.1-5.1-3.6-5.7zm16-2.3a5.45 5.45 0 0 0-6.4 4c-.6 2.9 1.2 5.7 4 6.3a5.45 5.45 0 0 0 6.4-4c.7-2.9-1.1-5.7-4-6.3zm15.8-.7c-2.7-.6-5.4 1.1-6 3.8s1.1 5.4 3.8 6 5.4-1.1 6-3.8c.7-2.7-1.1-5.4-3.8-6zm15.9.2c-2.5-.6-5.1 1-5.7 3.6-.6 2.5 1 5.1 3.6 5.7s5.1-1 5.6-3.6c.7-2.7-.9-5.1-3.5-5.7zm15.8 1.3c-2.2-.5-4.4.9-4.9 3.1s.9 4.4 3.1 4.9 4.4-.9 4.9-3.1c.6-2.2-.8-4.4-3.1-4.9zm16 1.1c-2.5-.6-5 1-5.6 3.5s1 5 3.5 5.6 5-1 5.6-3.5-.9-5.1-3.5-5.6zm15.8 2.2c-2.6-.6-5.2 1.1-5.8 3.7s1.1 5.2 3.7 5.8 5.2-1.1 5.8-3.7-1-5.2-3.7-5.8zm15.7 3.3c-2.6-.6-5.2 1.1-5.8 3.7s1.1 5.2 3.7 5.8 5.2-1.1 5.8-3.7c.5-2.7-1.1-5.3-3.7-5.8zm15.4 3.7c-2.8-.6-5.5 1.1-6.1 3.9s1.1 5.5 3.9 6.1 5.5-1.1 6.1-3.9c.7-2.7-1.1-5.5-3.9-6.1zm15.1 5.5a4.62 4.62 0 0 0-5.4 3.4 4.62 4.62 0 0 0 3.4 5.4 4.62 4.62 0 0 0 5.4-3.4c.6-2.4-1-4.8-3.4-5.4zM451 166c-2.4-.5-4.8 1-5.3 3.4s1 4.7 3.4 5.3c2.4.5 4.8-1 5.3-3.4s-1-4.8-3.4-5.3zm14.7 5.9c-2.6-.6-5.3 1.1-5.8 3.7-.6 2.7 1.1 5.3 3.7 5.8 2.7.6 5.3-1.1 5.8-3.7.6-2.6-1.1-5.2-3.7-5.8zm14.4 6.7c-3-.7-5.9 1.2-6.6 4.2s1.2 5.9 4.2 6.6 5.9-1.2 6.6-4.2c.6-3-1.3-6-4.2-6.6zm13.7 8.3c-2.8-.6-5.5 1.1-6.1 3.9a5.15 5.15 0 0 0 3.9 6.1 5.15 5.15 0 0 0 6.1-3.9c.6-2.7-1.1-5.5-3.9-6.1zm13.4 8.8c-2.7-.6-5.4 1.1-6 3.8s1.1 5.4 3.8 6 5.4-1.1 6-3.8c.6-2.8-1.1-5.4-3.8-6zm12.9 9.3c-2.7-.6-5.4 1.1-6 3.8s1.1 5.4 3.8 6 5.4-1.1 6-3.8-1.1-5.4-3.8-6zm12.4 10.2c-2.7-.6-5.3 1.1-5.8 3.7-.6 2.7 1.1 5.3 3.7 5.8 2.7.6 5.3-1.1 5.8-3.7.6-2.6-1.1-5.2-3.7-5.8zm12 9.9a5.64 5.64 0 1 0-2.5 11.1 5.64 5.64 0 1 0 2.5-11.1zm11.2 11.6c-2.9-.6-5.7 1.2-6.3 4-.6 2.9 1.2 5.7 4 6.3 2.9.6 5.7-1.2 6.3-4 .7-2.8-1.1-5.6-4-6.3zm10.7 11.9c-2.9-.6-5.7 1.2-6.3 4-.6 2.9 1.2 5.7 4 6.3 2.9.6 5.7-1.2 6.3-4 .7-2.8-1.1-5.7-4-6.3zm9.9 12.9c-2.6-.6-5.1 1-5.7 3.6s1 5.1 3.6 5.7 5.1-1 5.7-3.6c.6-2.5-1-5.1-3.6-5.7zm9.4 12.6c-2.8-.6-5.5 1.1-6.1 3.9s1.1 5.5 3.9 6.1 5.5-1.1 6.1-3.9c.6-2.7-1.1-5.4-3.9-6.1zm8.6 13.5c-2.8-.6-5.5 1.1-6.1 3.9s1.1 5.5 3.9 6.1 5.5-1.1 6.1-3.9-1.1-5.5-3.9-6.1zm7.9 14.3c-2.5-.5-4.9 1-5.4 3.5s1 4.9 3.5 5.4 4.9-1 5.4-3.5c.5-2.4-1-4.9-3.5-5.4zm7.3 13.8c-2.7-.6-5.4 1.1-6 3.8s1.1 5.4 3.8 6 5.4-1.1 6-3.8c.6-2.8-1.1-5.4-3.8-6zm6.3 15.2c-2.4-.5-4.7 1-5.2 3.3-.5 2.4 1 4.7 3.3 5.2 2.4.5 4.7-1 5.2-3.3s-.9-4.7-3.3-5.2zm5.6 15.4c-2.1-.5-4.1.8-4.6 2.9s.8 4.1 2.9 4.6 4.1-.8 4.6-2.9c.4-2.1-.9-4.1-2.9-4.6zm4.8 15.2c-2.1-.5-4.1.8-4.6 2.9s.8 4.1 2.9 4.6 4.1-.8 4.6-2.9-.8-4.1-2.9-4.6zm3.8 16.6c-1.5-.3-2.9.6-3.2 2.1s.6 2.9 2.1 3.2 2.9-.6 3.2-2.1-.6-2.9-2.1-3.2zm3.3 15.3c-1.6-.4-3.2.6-3.5 2.2-.4 1.6.6 3.2 2.2 3.5 1.6.4 3.2-.6 3.5-2.2.4-1.5-.6-3.1-2.2-3.5zm2.3 16.5c-1.2-.3-2.4.5-2.7 1.7s.5 2.4 1.7 2.7 2.4-.5 2.7-1.7c.2-1.2-.5-2.4-1.7-2.7zm1.5 16.3c-1-.2-2 .4-2.2 1.4s.4 2 1.4 2.2 2-.4 2.2-1.4-.4-2-1.4-2.2zm.6 16.3c-.8-.2-1.6.3-1.8 1.1s.3 1.6 1.1 1.8 1.6-.3 1.8-1.1c.2-.9-.3-1.7-1.1-1.8zm-.1 15.9c-.8-.2-1.6.3-1.8 1.1s.3 1.6 1.1 1.8 1.6-.3 1.8-1.1-.3-1.6-1.1-1.8zm-.8 15.4c-1.1-.2-2.2.5-2.5 1.6s.5 2.2 1.6 2.5 2.2-.5 2.5-1.6c.2-1.2-.5-2.3-1.6-2.5zm-1.9 16.2c-.9-.2-1.8.4-2 1.3s.4 1.8 1.3 2 1.8-.4 2-1.3-.4-1.8-1.3-2zm-2.7 15.9c-.8-.2-1.6.3-1.8 1.1s.3 1.6 1.1 1.8 1.6-.3 1.8-1.1-.3-1.6-1.1-1.8zm-3.4 15.6c-.8-.2-1.6.3-1.8 1.2-.2.8.3 1.6 1.2 1.8.8.2 1.6-.3 1.8-1.2.1-.8-.4-1.7-1.2-1.8zm-4.3 15.5c-.7-.2-1.4.3-1.5 1-.2.7.3 1.4 1 1.6s1.4-.3 1.5-1-.3-1.4-1-1.6zm-5 14.8c-.9-.2-1.8.4-2 1.3s.4 1.8 1.3 2 1.8-.4 2-1.3-.4-1.8-1.3-2zm-6 15.2c-.7-.2-1.5.3-1.6 1-.2.7.3 1.5 1 1.6.7.2 1.5-.3 1.6-1 .3-.8-.2-1.5-1-1.6zm-6.7 14.9c-.5-.1-.9.2-1 .7s.2 1 .7 1.1 1-.2 1.1-.7c0-.5-.3-1-.8-1.1zm-7.4 14.2c-.5-.1-1 .2-1.1.7s.2 1 .7 1.1 1-.2 1.1-.7c.1-.6-.2-1-.7-1.1zm-8.1 13.7c-.5-.1-1 .2-1.1.7s.2 1 .7 1.1 1-.2 1.1-.7c.1-.6-.2-1-.7-1.1zm-9 13.7c-.2-.1-.5.1-.5.3-.1.2.1.5.3.5.2.1.5-.1.5-.3.1-.2 0-.5-.3-.5zm-508-359.2c-.2 0-.4.1-.4.3s.1.4.3.4.4-.1.4-.3c0-.1-.1-.3-.3-.4zm9.6-12.8c-.2-.1-.5.1-.5.3-.1.2.1.5.3.5.2.1.5-.1.5-.3.1-.2-.1-.5-.3-.5zM94 239.4s-.3.1-.3.2.1.3.2.3.3-.1.3-.2c.1-.2 0-.3-.2-.3zm11.1-13.2c-.9-.2-1.8.4-2 1.3s.4 1.8 1.3 2 1.8-.4 2-1.3-.4-1.8-1.3-2zm11.2-10.3c-.4-.1-.8.2-.8.5-.1.4.2.8.5.8.4.1.8-.2.8-.5.1-.3-.1-.7-.5-.8zm12.4-12.9c-1.6-.4-3.3.7-3.7 2.3-.4 1.7.7 3.3 2.3 3.7 1.7.4 3.3-.7 3.7-2.3.4-1.7-.7-3.3-2.3-3.7zm12.3-9.4c-1.3-.3-2.7.5-3 1.9-.3 1.3.5 2.7 1.9 3 1.3.3 2.7-.5 3-1.9.2-1.4-.6-2.7-1.9-3zm13-10.2c-1.7-.4-3.5.7-3.9 2.5s.7 3.5 2.5 3.9 3.5-.7 3.9-2.5c.4-1.7-.7-3.5-2.5-3.9zm13.4-8.8c-1.8-.4-3.6.7-4 2.5s.7 3.6 2.5 4 3.6-.7 4-2.5-.7-3.6-2.5-4zm13.8-8.6c-2.1-.5-4.1.8-4.6 2.9s.8 4.1 2.9 4.6 4.1-.8 4.6-2.9c.5-2-.8-4.1-2.9-4.6zm14.1-6.8c-1.8-.4-3.6.7-4 2.5s.7 3.6 2.5 4 3.6-.7 4-2.5-.7-3.6-2.5-4zm14.8-8.2c-2.6-.6-5.2 1.1-5.8 3.7s1.1 5.2 3.7 5.8 5.2-1.1 5.8-3.7-1.1-5.2-3.7-5.8zm14.7-5.1c-2.2-.5-4.4.9-4.9 3.1s.9 4.4 3.1 4.9 4.4-.9 4.9-3.1a4.06 4.06 0 0 0-3.1-4.9zm15.2-5.8c-2.5-.6-5.1 1-5.7 3.6-.6 2.5 1 5.1 3.6 5.6 2.6.6 5.1-1 5.6-3.6.7-2.6-.9-5.1-3.5-5.6zm15.3-4.3c-2.5-.6-5 1-5.5 3.5s1 4.9 3.5 5.5 4.9-1 5.5-3.5-1-5-3.5-5.5zm15.6-3.8c-2.5-.6-5.1 1-5.6 3.6-.6 2.5 1 5.1 3.6 5.7 2.5.6 5.1-1 5.6-3.6s-1.1-5.1-3.6-5.7zm15.7-3.2c-2.8-.6-5.5 1.1-6.1 3.9s1.1 5.5 3.9 6.1 5.5-1.1 6.1-3.9-1.1-5.5-3.9-6.1zm15.9-2.3c-2.9-.6-5.7 1.2-6.3 4-.6 2.9 1.2 5.7 4 6.3a5.45 5.45 0 0 0 6.4-4c.6-2.9-1.2-5.7-4.1-6.3zm16-1.6c-3-.7-6 1.2-6.7 4.3-.7 3 1.2 6 4.3 6.7 3 .7 6-1.2 6.7-4.3.6-3.1-1.3-6-4.3-6.7zm15.9-.6a5.64 5.64 0 1 0-2.5 11.1 5.64 5.64 0 1 0 2.5-11.1zm15.9.9c-2.8-.6-5.5 1.1-6.1 3.9s1.1 5.5 3.9 6.1 5.5-1.1 6.1-3.9a5.15 5.15 0 0 0-3.9-6.1zm15.9 1c-2.8-.6-5.6 1.1-6.2 4-.6 2.8 1.1 5.6 3.9 6.2s5.6-1.1 6.2-3.9c.7-2.9-1.1-5.7-3.9-6.3zm15.9 1.8a5.45 5.45 0 0 0-6.4 4c-.6 2.9 1.2 5.7 4 6.3a5.45 5.45 0 0 0 6.4-4c.6-2.8-1.2-5.7-4-6.3zm15.6 2.9c-2.8-.6-5.5 1.1-6.1 3.9s1.1 5.5 3.9 6.1 5.5-1.1 6.1-3.9-1.1-5.5-3.9-6.1zm15.7 2.9c-3-.7-6 1.2-6.7 4.3-.7 3 1.2 6 4.3 6.7 3 .7 6-1.2 6.7-4.3s-1.3-6.1-4.3-6.7zm15.3 4.6c-2.8-.6-5.6 1.1-6.2 3.9s1.1 5.6 3.9 6.2 5.6-1.1 6.2-3.9c.7-2.8-1.1-5.6-3.9-6.2zm15.2 5c-2.8-.6-5.6 1.1-6.2 4-.6 2.8 1.1 5.6 3.9 6.2s5.6-1.1 6.2-3.9c.7-2.9-1.1-5.7-3.9-6.3zm14.9 5.8c-2.8-.6-5.5 1.1-6.1 3.9-.6 2.7 1.1 5.5 3.9 6.1 2.7.6 5.5-1.1 6.1-3.9a5.34 5.34 0 0 0-3.9-6.1zm14.6 6.1c-3-.7-5.9 1.2-6.6 4.2s1.2 5.9 4.2 6.6 5.9-1.2 6.6-4.2-1.2-5.9-4.2-6.6zm14.3 7.3c-2.9-.7-5.8 1.2-6.5 4.2s1.2 5.8 4.1 6.5c2.9.6 5.8-1.2 6.5-4.2.6-3-1.2-5.9-4.1-6.5zm13.9 7.7c-3-.7-6 1.3-6.7 4.3s1.3 6 4.3 6.7 6-1.3 6.7-4.3a5.75 5.75 0 0 0-4.3-6.7zm13.4 8.6c-3-.7-6 1.2-6.7 4.3-.7 3 1.2 6 4.3 6.7 3 .7 6-1.3 6.7-4.3.7-3.1-1.3-6.1-4.3-6.7zm13.1 9.1c-3.1-.7-6.2 1.3-6.9 4.4s1.3 6.2 4.4 6.9 6.2-1.3 6.9-4.4c.6-3.2-1.3-6.3-4.4-6.9zm12.4 10.1c-2.9-.7-5.8 1.2-6.5 4.2s1.2 5.8 4.1 6.5 5.8-1.2 6.5-4.1c.7-3-1.1-5.9-4.1-6.6zm12.1 10.2c-3.1-.7-6.2 1.3-6.9 4.4s1.3 6.2 4.4 6.9 6.2-1.3 6.9-4.4-1.3-6.2-4.4-6.9zm11.5 11c-3.1-.7-6.2 1.3-6.9 4.4s1.3 6.2 4.4 6.9 6.2-1.3 6.9-4.4-1.2-6.2-4.4-6.9zm10.9 12c-2.9-.7-5.9 1.2-6.5 4.1-.7 3 1.2 5.8 4.2 6.5 2.9.6 5.8-1.2 6.5-4.1s-1.3-5.9-4.2-6.5zm10.3 12.3c-2.8-.6-5.7 1.1-6.3 4s1.1 5.7 4 6.3 5.7-1.2 6.3-4-1.2-5.6-4-6.3zm9.7 12.5c-2.9-.7-5.9 1.2-6.5 4.1-.7 2.9 1.2 5.8 4.2 6.5 2.9.6 5.8-1.2 6.5-4.1.6-3-1.2-5.8-4.2-6.5zm9 13.5c-2.7-.6-5.4 1.1-6 3.8s1.1 5.4 3.8 6 5.4-1.1 6-3.8c.7-2.7-1.1-5.4-3.8-6zm8.4 13.6c-2.7-.6-5.4 1.1-6 3.8s1.1 5.4 3.8 6 5.4-1.1 6-3.8c.7-2.7-1-5.4-3.8-6zm7.8 13.7c-2.9-.6-5.7 1.2-6.3 4-.6 2.9 1.2 5.7 4 6.3a5.45 5.45 0 0 0 6.4-4c.6-2.9-1.2-5.7-4.1-6.3zm7 14.1c-3-.7-5.9 1.2-6.6 4.2s1.2 5.9 4.2 6.6 5.9-1.2 6.6-4.2-1.2-5.9-4.2-6.6zm6.4 14.7c-3-.7-5.9 1.2-6.6 4.2s1.2 5.9 4.2 6.6 5.9-1.2 6.6-4.2c.6-3-1.3-6-4.2-6.6zm5.3 15.8c-2.5-.6-4.9 1-5.5 3.5s1 5 3.5 5.5 4.9-1 5.5-3.5-1-4.9-3.5-5.5zm4.8 15.4c-2.4-.5-4.8 1-5.3 3.4s1 4.7 3.4 5.3c2.4.5 4.8-1 5.3-3.4s-1-4.8-3.4-5.3zm3.6 17.1c-1.5-.3-2.9.6-3.2 2.1s.6 2.9 2.1 3.2 2.9-.6 3.2-2.1c.3-1.4-.6-2.9-2.1-3.2zm3.2 16c-1.2-.3-2.5.5-2.8 1.8s.5 2.5 1.8 2.8 2.5-.5 2.8-1.8c.2-1.3-.5-2.5-1.8-2.8zm2.5 15.8c-1.2-.3-2.5.5-2.7 1.7-.3 1.2.5 2.5 1.7 2.7 1.2.3 2.5-.5 2.7-1.7.3-1.2-.5-2.4-1.7-2.7zm1.7 15.8c-1.2-.3-2.5.5-2.8 1.8s.5 2.5 1.8 2.8 2.5-.5 2.8-1.8c.2-1.3-.6-2.5-1.8-2.8zm.8 16.2c-1.1-.2-2.2.4-2.5 1.6-.3 1.1.5 2.2 1.6 2.5s2.2-.4 2.5-1.6c.2-1.2-.5-2.3-1.6-2.5zm.1 16.2c-1-.2-2 .4-2.2 1.4s.4 2 1.4 2.2 2-.4 2.2-1.4-.4-2-1.4-2.2zm-.8 16.4c-.7-.2-1.5.3-1.6 1-.2.7.3 1.5 1 1.6.7.2 1.5-.3 1.6-1 .2-.7-.3-1.5-1-1.6zm-1.5 15.7c-.8-.2-1.6.3-1.8 1.1s.3 1.6 1.1 1.8 1.6-.3 1.8-1.1-.3-1.6-1.1-1.8zM651 502c-.7-.2-1.5.3-1.6 1-.2.7.3 1.5 1 1.6s1.5-.3 1.6-1c.2-.7-.3-1.4-1-1.6zm-3.1 15.8c-.7-.2-1.4.3-1.5 1-.2.7.3 1.4 1 1.5s1.4-.3 1.5-1-.3-1.4-1-1.5zm-3.8 15.5c-.7-.1-1.3.3-1.5.9-.1.7.3 1.3.9 1.5.7.1 1.3-.3 1.5-.9.2-.7-.3-1.4-.9-1.5zm-4.6 15.3c-.7-.1-1.3.3-1.5.9-.1.7.3 1.3.9 1.5s1.3-.3 1.5-.9c.2-.7-.3-1.4-.9-1.5zm-5.4 15.2a1.11 1.11 0 0 0-1.3.8 1.11 1.11 0 0 0 .8 1.3 1.11 1.11 0 0 0 1.3-.8c.1-.6-.3-1.2-.8-1.3zm-6.2 15.2c-.3-.1-.6.1-.6.4-.1.3.1.6.4.6.3.1.6-.1.6-.4 0-.2-.2-.5-.4-.6zm-14.5 28.9s-.1 0 0 0c-.1.1-.1.1 0 .1 0 .1 0 .1 0-.1 0 .1 0 .1 0 0zM85.3 222.6s-.1 0 0 0c-.1.1 0 .1 0 .1v-.1zm22.7-23.2c-.4-.1-.8.2-.8.5-.1.4.2.8.5.8.4.1.8-.2.8-.5.1-.3-.1-.7-.5-.8zm12-10.2c-.2-.1-.5.1-.5.3-.1.2.1.5.3.5.2.1.5-.1.5-.3.1-.2-.1-.4-.3-.5zm12.7-10.5a1.11 1.11 0 0 0-1.3.8 1.11 1.11 0 0 0 .8 1.3 1.11 1.11 0 0 0 1.3-.8c.1-.6-.3-1.2-.8-1.3zm12.9-9.3c-.6-.1-1.2.2-1.3.8a1.11 1.11 0 0 0 .8 1.3 1.11 1.11 0 0 0 1.3-.8c.2-.6-.2-1.1-.8-1.3zm13.7-9.7a2.03 2.03 0 1 0-.9 4.1 2.03 2.03 0 0 0 2.5-1.6c.2-1.1-.5-2.2-1.6-2.5zm13.9-8.6c-1.5-.3-3 .6-3.3 2.1s.6 3 2.1 3.3 3-.6 3.3-2.1c.4-1.5-.6-3-2.1-3.3zm14.2-7.3c-1.5-.3-3 .6-3.3 2.1s.6 3 2.1 3.3 3-.6 3.3-2.1-.6-3-2.1-3.3zm14.7-7.9c-2.2-.5-4.3.9-4.8 3.1s.9 4.3 3.1 4.8 4.3-.9 4.8-3.1-.9-4.4-3.1-4.8zm14.8-6.1c-2.2-.5-4.4.9-4.9 3.1s.9 4.4 3.1 4.9 4.4-.9 4.9-3.1-.8-4.4-3.1-4.9zm15-5c-2-.5-4.1.8-4.5 2.9-.5 2.1.8 4.1 2.9 4.5 2.1.5 4.1-.8 4.5-2.9.5-2-.8-4-2.9-4.5zm15.3-4.5c-2-.5-4.1.8-4.5 2.9-.5 2.1.8 4.1 2.9 4.5 2.1.5 4.1-.8 4.5-2.9.5-2-.8-4.1-2.9-4.5zm15.6-4.3a4.15 4.15 0 0 0-1.8 8.2 4.15 4.15 0 0 0 5-3.2c.5-2.2-1-4.5-3.2-5zm15.6-3c-2.2-.5-4.4.9-4.9 3.1s.9 4.4 3.1 4.9 4.4-.9 4.9-3.1c.6-2.2-.8-4.4-3.1-4.9zm16-3.2c-2.7-.6-5.4 1.1-6 3.8s1.1 5.4 3.8 6 5.4-1.1 6-3.8-1.1-5.4-3.8-6zm15.9-1.5c-2.6-.6-5.3 1.1-5.8 3.7-.6 2.7 1.1 5.3 3.7 5.8s5.3-1.1 5.8-3.7c.6-2.6-1.1-5.2-3.7-5.8zm15.9-1c-2.7-.6-5.4 1.1-6 3.8s1.1 5.4 3.8 6 5.4-1.1 6-3.8-1.1-5.3-3.8-6zm16-.1c-2.7-.6-5.4 1.1-6 3.8s1.1 5.4 3.8 6 5.4-1.1 6-3.8-1.1-5.4-3.8-6zm15.9.5c-2.8-.6-5.6 1.1-6.2 4-.6 2.8 1.1 5.6 3.9 6.2s5.6-1.1 6.2-3.9c.7-2.9-1-5.7-3.9-6.3zm16 1.1c-3-.7-5.9 1.2-6.6 4.2s1.2 5.9 4.2 6.6 5.9-1.2 6.6-4.2c.6-3-1.2-5.9-4.2-6.6zm15.9 1.6c-3.3-.7-6.5 1.4-7.3 4.6-.7 3.3 1.3 6.5 4.6 7.3 3.3.7 6.5-1.4 7.3-4.6.8-3.3-1.3-6.6-4.6-7.3zm15.7 3c-3.2-.7-6.5 1.3-7.2 4.6-.7 3.2 1.3 6.5 4.6 7.2s6.5-1.3 7.2-4.6-1.3-6.5-4.6-7.2zm15.5 4a5.64 5.64 0 0 0-2.5 11.1 5.64 5.64 0 0 0 6.8-4.3c.7-3.1-1.3-6.2-4.3-6.8zm15 5.6c-2.3-.5-4.6 1-5.2 3.3-.5 2.3 1 4.6 3.3 5.2 2.3.5 4.6-1 5.2-3.3.5-2.3-.9-4.6-3.3-5.2zm15.3 4.6c-2.6-.6-5.2 1.1-5.8 3.7s1.1 5.2 3.7 5.8 5.2-1.1 5.8-3.7c.5-2.6-1.1-5.2-3.7-5.8zm15.1 4.8c-3.2-.7-6.4 1.3-7.1 4.5a5.85 5.85 0 1 0 11.5 2.5c.7-3.2-1.3-6.3-4.4-7zm14.5 6.4a5.85 5.85 0 1 0-2.5 11.5c3.2.7 6.4-1.3 7.1-4.5s-1.4-6.2-4.6-7zm14.3 7c-3.3-.7-6.6 1.3-7.3 4.7-.7 3.3 1.3 6.6 4.7 7.3s6.6-1.4 7.3-4.7-1.4-6.6-4.7-7.3zm13.8 8.4c-3-.7-6 1.2-6.6 4.2-.7 3 1.2 6 4.2 6.6 3 .7 6-1.2 6.6-4.2.7-3-1.2-5.9-4.2-6.6zm13.6 8.3c-3.1-.7-6.2 1.3-6.9 4.4s1.3 6.2 4.4 6.9 6.2-1.3 6.9-4.4c.6-3.1-1.3-6.2-4.4-6.9zm13.1 9c-3.2-.7-6.3 1.3-7 4.4-.7 3.2 1.3 6.3 4.4 7s6.3-1.3 7-4.4c.7-3.2-1.2-6.3-4.4-7zm12.6 9.8c-3.1-.7-6.2 1.3-6.9 4.4s1.3 6.2 4.4 6.9 6.2-1.3 6.9-4.4-1.3-6.2-4.4-6.9zm12.2 10.4c-3.1-.7-6.2 1.3-6.9 4.4s1.3 6.2 4.4 6.9 6.2-1.3 6.9-4.4c.6-3.2-1.3-6.3-4.4-6.9zm11.6 11c-3-.7-6 1.2-6.6 4.2-.7 3 1.2 6 4.2 6.6 3 .7 6-1.2 6.6-4.2.7-3-1.1-6-4.2-6.6zm11.2 11.2c-3.1-.7-6.2 1.3-6.9 4.4s1.3 6.2 4.4 6.9 6.2-1.3 6.9-4.4-1.3-6.2-4.4-6.9zm10.6 12a5.64 5.64 0 1 0-2.5 11.1 5.64 5.64 0 1 0 2.5-11.1zm10 12.5c-3-.7-6 1.2-6.7 4.3-.7 3 1.3 6 4.3 6.7s6-1.3 6.7-4.3c.7-3.1-1.2-6.1-4.3-6.7zm9.4 12.9c-3-.7-6 1.2-6.6 4.2-.7 3 1.2 6 4.2 6.6 3 .7 6-1.2 6.6-4.2.7-3-1.2-5.9-4.2-6.6zm8.9 13.2a5.64 5.64 0 0 0-6.8 4.3c-.7 3.1 1.3 6.1 4.3 6.8a5.64 5.64 0 0 0 6.8-4.3c.7-3.1-1.3-6.1-4.3-6.8zm8.1 13.9c-3-.7-5.9 1.2-6.6 4.2s1.2 5.9 4.2 6.6 5.9-1.2 6.6-4.2-1.2-6-4.2-6.6zm7.6 13.9a5.64 5.64 0 0 0-6.8 4.3c-.7 3.1 1.3 6.1 4.3 6.8a5.64 5.64 0 0 0 6.8-4.3c.7-3.1-1.3-6.2-4.3-6.8zm6.9 14.1a5.85 5.85 0 1 0-2.5 11.5 5.85 5.85 0 0 0 7-4.5c.7-3.1-1.3-6.3-4.5-7zm6 15.2c-3-.7-5.9 1.2-6.6 4.2s1.2 5.9 4.2 6.6 5.9-1.2 6.6-4.2c.7-3.1-1.2-6-4.2-6.6zm5.2 16.3c-2.2-.5-4.4.9-4.9 3.1s.9 4.4 3.1 4.9 4.4-.9 4.9-3.1-.9-4.4-3.1-4.9zm4.5 16.1c-1.8-.4-3.5.7-3.9 2.5s.7 3.5 2.5 3.9 3.5-.7 3.9-2.5-.7-3.5-2.5-3.9zm4.1 15.4c-1.8-.4-3.5.7-3.9 2.5s.7 3.5 2.5 3.9 3.5-.7 3.9-2.5c.3-1.7-.8-3.5-2.5-3.9zm3 16.6c-1.2-.3-2.5.5-2.7 1.7-.3 1.2.5 2.5 1.7 2.7 1.2.3 2.5-.5 2.7-1.7s-.5-2.5-1.7-2.7zm2.6 15.8c-1.2-.3-2.4.5-2.7 1.7s.5 2.4 1.7 2.7 2.4-.5 2.7-1.7-.5-2.5-1.7-2.7zm1.7 16c-1.1-.2-2.2.4-2.5 1.6-.2 1.1.5 2.2 1.6 2.5s2.2-.5 2.5-1.6c.2-1.2-.5-2.3-1.6-2.5zm1.1 15.7c-1.2-.3-2.4.5-2.7 1.7s.5 2.4 1.7 2.7 2.4-.5 2.7-1.7-.5-2.4-1.7-2.7zm.2 16.1c-1.1-.2-2.2.4-2.5 1.6-.3 1.1.5 2.2 1.6 2.5s2.2-.5 2.5-1.6-.4-2.2-1.6-2.5zm-.4 16c-1.1-.2-2.2.4-2.5 1.6-.3 1.1.5 2.2 1.6 2.5s2.2-.5 2.5-1.6c.2-1.2-.5-2.3-1.6-2.5zm-1.3 16.1a2 2 0 0 0-2.3 1.4 2 2 0 0 0 1.4 2.3 2 2 0 0 0 2.3-1.4c.3-1.1-.4-2.1-1.4-2.3zm-1.9 15.8a2 2 0 0 0-2.3 1.4 2 2 0 0 0 1.4 2.3c1 .3 2-.4 2.3-1.4s-.4-2.1-1.4-2.3zm-2.9 16.4c-.7-.1-1.3.3-1.5.9s.3 1.3.9 1.5c.7.1 1.3-.3 1.5-.9s-.2-1.4-.9-1.5zm-3.5 15.7a1.11 1.11 0 0 0-1.3.8 1.11 1.11 0 0 0 .8 1.3 1.11 1.11 0 0 0 1.3-.8c.1-.6-.2-1.2-.8-1.3zm-4.3 15.9c-.3-.1-.6.1-.6.4-.1.3.1.6.4.6.3.1.6-.1.6-.4.1-.2-.1-.5-.4-.6zm-5 15.5s-.2 0-.2.1 0 .2.1.2.2 0 .2-.1c.1 0 0-.1-.1-.2zM137.6 154c-.2-.1-.5.1-.5.3-.1.2.1.5.3.5.2.1.5-.1.5-.3.1-.3-.1-.5-.3-.5zm27.4-17.1c-.5-.1-1 .2-1.1.7s.2 1 .7 1.1 1-.2 1.1-.7-.2-1-.7-1.1zm14.3-7.9c-.8-.2-1.6.3-1.8 1.2-.2.8.3 1.6 1.2 1.8.8.2 1.6-.3 1.8-1.2.1-.8-.4-1.6-1.2-1.8zm14.3-5.8c-.3-.1-.6.1-.7.4s.1.6.4.7.6-.1.7-.4-.1-.6-.4-.7zm15.1-7.7c-1.3-.3-2.5.5-2.8 1.8s.5 2.5 1.8 2.8 2.5-.5 2.8-1.8-.5-2.6-1.8-2.8zm15.2-6.3c-1.8-.4-3.6.7-4 2.5s.7 3.6 2.5 4 3.6-.7 4-2.5-.7-3.6-2.5-4zm15.3-4.5c-1.6-.4-3.3.7-3.7 2.3-.4 1.7.7 3.3 2.3 3.7 1.7.4 3.3-.7 3.7-2.3.4-1.7-.7-3.3-2.3-3.7zm15.6-5.1a4.15 4.15 0 0 0-1.8 8.2 4.15 4.15 0 0 0 5-3.2c.5-2.2-.9-4.5-3.2-5zm15.5-2.8c-2-.4-4 .8-4.4 2.8s.8 4 2.8 4.4 4-.8 4.4-2.8c.5-2-.8-4-2.8-4.4zm15.9-3.1c-2.3-.5-4.6.9-5.1 3.2s.9 4.6 3.2 5.1 4.6-.9 5.1-3.2c.6-2.3-.9-4.6-3.2-5.1zm15.9-2.1a4.62 4.62 0 0 0-5.4 3.4 4.62 4.62 0 0 0 3.4 5.4 4.62 4.62 0 0 0 5.4-3.4c.6-2.5-1-4.9-3.4-5.4zm15.9-1.1c-2.4-.5-4.8 1-5.3 3.4s1 4.8 3.4 5.3 4.8-1 5.3-3.4-1-4.8-3.4-5.3zm16-.9c-2.6-.6-5.1 1-5.7 3.6s1 5.1 3.6 5.7 5.1-1 5.7-3.6c.6-2.5-1-5.1-3.6-5.7zm15.9.8c-2.3-.5-4.6.9-5.2 3.3-.5 2.3.9 4.6 3.3 5.2 2.3.5 4.6-.9 5.2-3.3.5-2.4-1-4.7-3.3-5.2zm16.1.2c-2.8-.6-5.5 1.1-6.1 3.9-.6 2.7 1.1 5.5 3.9 6.1s5.5-1.1 6.1-3.9c.5-2.8-1.2-5.5-3.9-6.1zm15.8 1.7c-2.7-.6-5.5 1.1-6.1 3.9s1.1 5.5 3.9 6.1 5.5-1.1 6.1-3.9-1.1-5.5-3.9-6.1zm15.9 2.1c-2.9-.6-5.8 1.2-6.4 4.1s1.2 5.8 4.1 6.4 5.8-1.2 6.4-4.1-1.2-5.8-4.1-6.4zm15.6 3.1c-2.9-.6-5.8 1.2-6.4 4.1s1.2 5.8 4.1 6.4 5.8-1.2 6.4-4.1-1.2-5.8-4.1-6.4zm15.4 4.3c-2.6-.6-5.2 1.1-5.8 3.7s1.1 5.2 3.7 5.8 5.2-1.1 5.8-3.7-1.1-5.2-3.7-5.8zm15.4 3.9c-2.9-.7-5.8 1.2-6.5 4.2-.6 2.9 1.2 5.9 4.1 6.5s5.9-1.2 6.5-4.1c.7-3-1.1-5.9-4.1-6.6zm14.9 6c-2.5-.6-4.9 1-5.5 3.5s1 4.9 3.5 5.5 4.9-1 5.5-3.5-1-4.9-3.5-5.5zm15.2 4.6c-3.2-.7-6.3 1.3-7 4.4-.7 3.2 1.3 6.3 4.4 7 3.2.7 6.3-1.3 7-4.4.7-3.2-1.3-6.3-4.4-7zm14.7 5.8c-3.6-.8-7.1 1.5-7.9 5-.8 3.6 1.5 7.1 5 7.9s7.1-1.4 7.9-5-1.4-7.1-5-7.9zm14.2 7.6c-3.3-.7-6.7 1.4-7.4 4.7-.7 3.4 1.4 6.7 4.7 7.4 3.4.7 6.7-1.4 7.4-4.7.8-3.4-1.3-6.7-4.7-7.4zm13.9 7.7c-3.4-.8-6.7 1.4-7.5 4.8-.7 3.4 1.4 6.7 4.8 7.5 3.4.7 6.7-1.4 7.5-4.8.7-3.4-1.4-6.8-4.8-7.5zm13.4 9.3c-2.9-.6-5.7 1.2-6.3 4-.6 2.9 1.2 5.7 4 6.3a5.45 5.45 0 0 0 6.4-4c.6-2.8-1.2-5.6-4.1-6.3zm13.3 8.2c-3.3-.7-6.6 1.4-7.3 4.7s1.4 6.6 4.7 7.3 6.6-1.4 7.3-4.7-1.4-6.6-4.7-7.3zm12.7 9.9c-3.2-.7-6.3 1.3-7 4.4-.7 3.2 1.3 6.3 4.4 7 3.2.7 6.3-1.3 7-4.4.8-3.2-1.2-6.3-4.4-7zm12.2 10.8c-2.8-.6-5.5 1.1-6.1 3.9s1.1 5.5 3.9 6.1 5.5-1.1 6.1-3.9c.6-2.7-1.2-5.5-3.9-6.1zm11.8 10.7c-2.8-.6-5.5 1.1-6.2 3.9a5.15 5.15 0 0 0 3.9 6.1c2.8.6 5.5-1.1 6.1-3.9.7-2.7-1-5.5-3.8-6.1zm11.5 10.8c-3-.7-6 1.2-6.6 4.2-.7 3 1.2 6 4.2 6.6s6-1.2 6.6-4.2a5.66 5.66 0 0 0-4.2-6.6zm10.8 11.5c-3.1-.7-6.2 1.3-6.9 4.4s1.3 6.2 4.4 6.9 6.2-1.3 6.9-4.4-1.3-6.2-4.4-6.9zm10.3 12.1c-3.2-.7-6.3 1.3-7 4.4-.7 3.2 1.3 6.3 4.4 7 3.2.7 6.3-1.3 7-4.4.8-3.2-1.2-6.3-4.4-7zm9.8 12.6c-3.2-.7-6.3 1.3-7 4.4s1.3 6.3 4.4 7 6.3-1.3 7-4.4c.8-3.1-1.3-6.3-4.4-7zm9.2 12.9c-3.3-.7-6.5 1.3-7.2 4.6-.7 3.2 1.3 6.5 4.6 7.2s6.5-1.3 7.2-4.6c.7-3.2-1.3-6.5-4.6-7.2zm8.5 13.7c-3.1-.7-6.2 1.3-6.9 4.4s1.3 6.2 4.4 6.9 6.2-1.3 6.9-4.4-1.2-6.2-4.4-6.9zm8 13.8c-3.1-.7-6.2 1.3-6.9 4.4s1.3 6.2 4.4 6.9 6.2-1.3 6.9-4.4-1.3-6.2-4.4-6.9zm7.3 14.3c-3.1-.7-6.2 1.3-6.9 4.4s1.3 6.2 4.4 6.9 6.2-1.3 6.9-4.4-1.3-6.3-4.4-6.9zm6.7 14.3c-3.2-.7-6.4 1.3-7.1 4.5a5.85 5.85 0 1 0 11.5 2.5c.8-3.2-1.2-6.3-4.4-7zm5.7 16.4a4.15 4.15 0 1 0-1.8 8.2 4.15 4.15 0 0 0 5-3.2c.5-2.2-.9-4.5-3.2-5zm5.4 15a4.15 4.15 0 1 0-1.8 8.2 4.15 4.15 0 0 0 5-3.2c.5-2.2-1-4.5-3.2-5zm4.6 15.8c-2-.4-4 .8-4.4 2.8s.8 4 2.8 4.4 4-.8 4.4-2.8-.8-4-2.8-4.4zm3.9 15.7c-1.9-.4-3.7.8-4.1 2.6-.4 1.9.8 3.7 2.6 4.1 1.9.4 3.7-.8 4.1-2.6.4-1.9-.8-3.7-2.6-4.1zm3.2 16.2c-1.5-.3-3.1.6-3.4 2.2-.3 1.5.6 3.1 2.2 3.4 1.5.3 3.1-.6 3.4-2.2s-.7-3.1-2.2-3.4zm2.6 15.6c-1.6-.4-3.2.6-3.5 2.2-.4 1.6.6 3.2 2.2 3.5 1.6.4 3.2-.6 3.5-2.2.4-1.6-.6-3.2-2.2-3.5zm1.9 15.8c-1.6-.4-3.2.6-3.5 2.2-.4 1.6.6 3.2 2.2 3.5 1.6.4 3.2-.6 3.5-2.2.4-1.5-.6-3.1-2.2-3.5zm.7 18.1c-.4-.1-.8.2-.9.6s.2.8.6.9.8-.2.9-.6c0-.4-.2-.8-.6-.9zm.5 15.6a1.11 1.11 0 0 0-1.3.8 1.11 1.11 0 0 0 .8 1.3 1.11 1.11 0 0 0 1.3-.8 1.11 1.11 0 0 0-.8-1.3zm-.3 16.3c-.4-.1-.8.2-.8.5-.1.4.2.8.5.8s.8-.2.8-.5c.1-.3-.1-.7-.5-.8zm-1.1 16.1c-.3-.1-.6.1-.6.4s.1.6.4.6c.3.1.6-.1.6-.4.1-.2-.1-.5-.4-.6zm-1.7 16.1c-.2 0-.4.1-.4.3s.1.4.3.4.4-.1.4-.3-.1-.4-.3-.4zm-2.4 15.9s-.2 0-.2.1 0 .2.1.2.2 0 .2-.1 0-.2-.1-.2zM185.7 107.3c-.3-.1-.6.1-.7.4s.1.6.4.7.6-.1.7-.4c.2-.4 0-.7-.4-.7zm14.9-6.6a1.11 1.11 0 0 0-1.3.8 1.11 1.11 0 0 0 .8 1.3 1.11 1.11 0 0 0 1.3-.8c.1-.6-.3-1.2-.8-1.3zm15-5.4a1.11 1.11 0 0 0-1.3.8 1.11 1.11 0 0 0 .8 1.3 1.11 1.11 0 0 0 1.3-.8c.1-.6-.3-1.2-.8-1.3zm15.2-4.7c-.5-.1-1 .2-1.1.7s.2 1 .7 1.1 1-.2 1.1-.7-.2-1-.7-1.1zm15.8-5.9c-1.5-.3-2.9.6-3.2 2.1s.6 2.9 2.1 3.2 2.9-.6 3.2-2.1c.3-1.4-.7-2.9-2.1-3.2zm15.1-1.7c-.5-.1-1 .2-1.1.7s.2 1 .7 1.1 1-.2 1.1-.7-.2-1-.7-1.1zm16.2-4.6c-1.5-.3-3 .6-3.3 2.1s.6 3 2.1 3.3 3-.6 3.3-2.1-.6-3-2.1-3.3zm15.8-2.2c-1.5-.3-3 .6-3.3 2.1s.6 3 2.1 3.3 3-.6 3.3-2.1-.6-2.9-2.1-3.3zm15.3.9c-.2 0-.4.1-.4.3s.1.4.3.4.4-.1.4-.3-.1-.3-.3-.4zm16.2-1.8c-.8-.2-1.6.3-1.8 1.1s.3 1.6 1.1 1.8 1.6-.3 1.8-1.1c.2-.9-.3-1.7-1.1-1.8zm16.3-1.6c-1.6-.4-3.2.6-3.5 2.2-.4 1.6.6 3.2 2.2 3.5s3.2-.6 3.5-2.2c.4-1.6-.6-3.1-2.2-3.5zm16.2-.6a4.15 4.15 0 0 0-5 3.2 4.15 4.15 0 1 0 8.2 1.8 4.15 4.15 0 0 0-3.2-5zm16.1.2c-2.8-.6-5.7 1.1-6.3 4s1.1 5.7 4 6.3 5.7-1.1 6.3-4c.7-2.9-1.1-5.7-4-6.3zm15.9 1.8c-2.9-.6-5.8 1.2-6.4 4.1s1.2 5.8 4.1 6.4 5.8-1.2 6.4-4.1-1.2-5.7-4.1-6.4zm15.7 3c-2.7-.6-5.4 1.1-6 3.8s1.1 5.4 3.8 6 5.4-1.1 6-3.8-1.1-5.4-3.8-6zm15.6 3.3c-2.7-.6-5.4 1.1-6 3.8s1.1 5.4 3.8 6 5.4-1.1 6-3.8c.6-2.8-1.1-5.4-3.8-6zm15.5 3.5c-3-.7-5.9 1.2-6.6 4.2s1.2 5.9 4.2 6.6 5.9-1.2 6.6-4.2c.7-3.1-1.2-6-4.2-6.6zm15.4 4.2c-3.2-.7-6.3 1.3-7 4.4-.7 3.2 1.3 6.3 4.4 7 3.2.7 6.3-1.3 7-4.4.7-3.2-1.3-6.3-4.4-7zm15 5.5c-3-.7-6 1.3-6.7 4.3s1.3 6 4.3 6.7 6-1.3 6.7-4.3a5.75 5.75 0 0 0-4.3-6.7zm14.8 6.1c-2.9-.7-5.8 1.2-6.5 4.2-.6 2.9 1.2 5.8 4.1 6.5 2.9.6 5.8-1.2 6.5-4.1.7-3.1-1.2-6-4.1-6.6zm14.7 5.9c-3.2-.7-6.5 1.3-7.2 4.6-.7 3.2 1.3 6.5 4.6 7.2 3.2.7 6.5-1.3 7.2-4.6.7-3.2-1.4-6.5-4.6-7.2zm14.2 7.2c-3.2-.7-6.4 1.3-7.1 4.5s1.3 6.4 4.5 7.1 6.4-1.3 7.1-4.5c.8-3.2-1.2-6.4-4.5-7.1zm13.9 8.1c-3-.7-6 1.2-6.7 4.3-.7 3 1.3 6 4.3 6.7s6-1.2 6.7-4.3a5.75 5.75 0 0 0-4.3-6.7zm13.6 8.3c-3-.7-6 1.2-6.7 4.3-.7 3 1.2 6 4.3 6.7 3 .7 6-1.2 6.7-4.3.7-3-1.3-6-4.3-6.7zm13.4 8.5c-3.3-.7-6.5 1.4-7.3 4.6-.7 3.3 1.4 6.5 4.6 7.3 3.3.7 6.5-1.4 7.3-4.6.7-3.3-1.4-6.6-4.6-7.3zm12.7 9.8c-3.1-.7-6.2 1.3-6.9 4.4s1.3 6.2 4.4 6.9 6.2-1.3 6.9-4.4c.7-3.2-1.2-6.2-4.4-6.9zm12.5 9.8a5.85 5.85 0 1 0-2.5 11.5 5.85 5.85 0 0 0 7-4.5c.7-3.1-1.3-6.3-4.5-7zm12 10.5c-3.2-.7-6.4 1.3-7.1 4.5s1.3 6.4 4.5 7.1 6.4-1.3 7.1-4.5c.8-3.2-1.3-6.4-4.5-7.1zm11.6 10.8c-3.3-.7-6.6 1.4-7.4 4.7-.7 3.3 1.4 6.6 4.7 7.3s6.6-1.4 7.3-4.7-1.3-6.6-4.6-7.3zm11 11.5c-3.3-.7-6.6 1.3-7.3 4.7-.7 3.3 1.3 6.6 4.7 7.3 3.3.7 6.6-1.3 7.3-4.7.7-3.3-1.4-6.5-4.7-7.3zm10.6 12c-3.3-.7-6.7 1.4-7.4 4.7s1.4 6.7 4.7 7.4c3.4.7 6.7-1.4 7.4-4.7s-1.4-6.7-4.7-7.4zm9.8 13.2a5.45 5.45 0 0 0-6.4 4c-.6 2.9 1.2 5.7 4 6.3 2.9.6 5.7-1.2 6.3-4 .8-2.8-1-5.6-3.9-6.3zm9.6 12.4c-3.1-.7-6.2 1.3-6.9 4.4s1.3 6.2 4.4 6.9 6.2-1.3 6.9-4.4-1.3-6.2-4.4-6.9zm9 13c-3.2-.7-6.5 1.3-7.2 4.6-.7 3.2 1.3 6.5 4.6 7.2 3.2.7 6.5-1.3 7.2-4.6s-1.4-6.5-4.6-7.2zm8.1 14.9c-2.5-.6-4.9 1-5.5 3.5s1 4.9 3.5 5.5 4.9-1 5.5-3.5c.5-2.5-1.1-4.9-3.5-5.5zm8 12.9c-3.1-.7-6.2 1.3-6.9 4.4s1.3 6.2 4.4 6.9 6.2-1.3 6.9-4.4c.6-3.2-1.3-6.2-4.4-6.9zm6.9 15.3c-2.5-.6-5 1-5.6 3.5s1 5 3.5 5.6 5-1 5.6-3.5c.6-2.6-1-5.1-3.5-5.6zm6.5 14.5c-2.5-.6-5 1-5.6 3.5s1 5 3.5 5.6 5-1 5.6-3.5-.9-5-3.5-5.6zm5.4 17.1c-1.2-.3-2.5.5-2.8 1.8s.5 2.5 1.8 2.8 2.5-.5 2.8-1.8c.3-1.2-.5-2.5-1.8-2.8zm5.6 13.9c-1.9-.4-3.8.8-4.2 2.7s.8 3.8 2.7 4.2 3.8-.8 4.2-2.7-.8-3.8-2.7-4.2zm4.1 17.7a1.11 1.11 0 0 0-1.3.8 1.11 1.11 0 0 0 .8 1.3 1.11 1.11 0 0 0 1.3-.8c.1-.6-.2-1.2-.8-1.3zm4.2 14.3c-1.2-.3-2.4.5-2.7 1.7s.5 2.4 1.7 2.7 2.4-.5 2.7-1.7c.3-1.3-.4-2.5-1.7-2.7zM702 380s-.1 0 0 0c-.1.1-.1.1 0 .1v-.1zm2.7 15.6s-.2 0-.2.1 0 .2.1.2.2 0 .2-.1 0-.2-.1-.2zm2 15.7c-.2 0-.4.1-.4.3s.1.4.3.4.4-.1.4-.3-.2-.4-.3-.4zm1.4 15.5c-.4-.1-.8.2-.9.6s.2.8.6.9.8-.2.9-.6c0-.4-.2-.8-.6-.9zM253.6 67.3s-.1 0 0 0c-.1.1-.1.1 0 .1 0 .1 0 .1 0-.1 0 .1.1.1 0 0zm31.4-5.4s0 .1 0 0c-.1.1 0 .1 0 .1 0 .1.1 0 0-.1.1.1.1.1 0 0zm16-2c-.2 0-.4.1-.4.3s.1.4.3.4.4-.1.4-.3c0-.1-.1-.3-.3-.4zm63.7-.2s-.2 0-.2.1 0 .2.1.2.2 0 .2-.1 0-.2-.1-.2zm15.9 1.5s-.2 0-.2.1 0 .2.1.2.2 0 .2-.1 0-.1-.1-.2zm15.8 1.8c-.3-.1-.6.1-.7.4s.1.6.4.7.6-.1.7-.4c.2-.3 0-.6-.4-.7zm16 1.6c-1-.2-2 .4-2.2 1.4s.4 2 1.4 2.2 2-.4 2.2-1.4c.3-1-.4-2-1.4-2.2zM428 68c-1-.2-2 .4-2.2 1.4s.4 2 1.4 2.2 2-.4 2.2-1.4c.2-.9-.4-1.9-1.4-2.2zm15.4 4.5c-.8-.2-1.6.3-1.8 1.1s.3 1.6 1.1 1.8 1.6-.3 1.8-1.1c.2-.9-.3-1.6-1.1-1.8zm15.2 4.7c-.8-.2-1.6.3-1.8 1.1s.3 1.6 1.1 1.8 1.6-.3 1.8-1.1-.3-1.6-1.1-1.8zm15.1 5.2c-.9-.2-1.8.4-2 1.3s.4 1.8 1.3 2 1.8-.4 2-1.3c.1-1-.4-1.9-1.3-2zm14.9 5.4a2.03 2.03 0 0 0-2.5 1.6 2.03 2.03 0 0 0 4.1.9c.3-1.1-.4-2.2-1.6-2.5zm14.7 5.9c-1.5-.3-3.1.6-3.4 2.2-.3 1.5.6 3.1 2.2 3.4 1.5.3 3.1-.6 3.4-2.2s-.6-3.1-2.2-3.4zm14.1 8a2 2 0 0 0-2.3 1.4 2 2 0 0 0 1.4 2.3 2 2 0 0 0 2.3-1.4 2 2 0 0 0-1.4-2.3zm14.9 3.6c-3.3-.7-6.6 1.4-7.3 4.7s1.4 6.6 4.7 7.3 6.6-1.4 7.3-4.7-1.4-6.6-4.7-7.3zm13.3 9.7c-2.5-.6-5 1-5.6 3.5s1 5 3.5 5.6 5-1 5.6-3.5c.6-2.6-1-5.1-3.5-5.6zm12.8 11.1c-1.2-.3-2.4.5-2.7 1.7s.5 2.4 1.7 2.7 2.4-.5 2.7-1.7c.2-1.2-.5-2.4-1.7-2.7zm13.8 5.4c-3.4-.8-6.8 1.4-7.5 4.8-.8 3.4 1.4 6.8 4.8 7.5 3.4.8 6.8-1.4 7.5-4.8.7-3.3-1.4-6.7-4.8-7.5zm12.3 11c-2.8-.6-5.6 1.1-6.2 3.9s1.1 5.6 3.9 6.2 5.6-1.1 6.2-4-1.1-5.5-3.9-6.1zm11.3 13.8c-.9-.2-1.8.4-2 1.3s.4 1.8 1.3 2 1.8-.4 2-1.3-.3-1.8-1.3-2zm12.1 9.3c-1.7-.4-3.5.7-3.9 2.5-.4 1.7.7 3.5 2.5 3.9s3.5-.7 3.9-2.5-.7-3.5-2.5-3.9zm10.7 13.8c-.4-.1-.8.2-.9.6s.2.8.6.9.8-.2.9-.6c0-.4-.2-.9-.6-.9zm11.7 7.2c-2.9-.6-5.8 1.2-6.5 4.1-.6 2.9 1.2 5.8 4.1 6.5 2.9.6 5.9-1.2 6.5-4.1s-1.1-5.9-4.1-6.5zm9.8 14.4c-1.7-.4-3.4.7-3.7 2.4-.4 1.7.7 3.4 2.4 3.7 1.7.4 3.4-.7 3.7-2.4.4-1.6-.7-3.3-2.4-3.7zm9.9 12.2c-2-.4-3.9.8-4.3 2.7-.4 2 .8 3.9 2.7 4.3 2 .4 3.9-.8 4.3-2.7.5-2-.7-3.9-2.7-4.3zm9.6 11.4c-2.8-.6-5.6 1.1-6.2 4-.6 2.8 1.1 5.6 3.9 6.2s5.6-1.2 6.2-4c.7-2.8-1.1-5.6-3.9-6.2zm7.9 17.1c-.7-.2-1.5.3-1.6 1-.2.7.3 1.5 1 1.6.7.2 1.5-.3 1.6-1 .2-.7-.3-1.4-1-1.6zm7.9 14.7c-.2-.1-.5.1-.5.3-.1.2.1.5.3.5.2.1.5-.1.5-.3.1-.3-.1-.5-.3-.5zm8 12.4c-1.1-.2-2.2.5-2.5 1.6s.5 2.2 1.6 2.5 2.2-.5 2.5-1.6-.5-2.3-1.6-2.5zm6.6 16.3s-.1 0 0 0c-.1.1-.1.1 0 .1v-.1zm6.5 14.1c-.3-.1-.6.1-.6.4-.1.3.1.6.4.6.3.1.6-.1.6-.4 0-.2-.1-.5-.4-.6zm5.7 15.2s-.2 0-.2.1 0 .2.1.2.2 0 .2-.1c.1-.1 0-.2-.1-.2zm5.3 15.1s-.2 0-.2.1 0 .2.1.2.2 0 .2-.1 0-.2-.1-.2zm11.8 46.5s-.1-.1 0 0c-.1.1-.1.1 0 .1v-.1zM538.7 94.6c-.3-.1-.6.1-.6.4s.1.6.4.6.6-.1.6-.4c.1-.2-.1-.5-.4-.6zm13.6 8.6s-.2 0-.2.1 0 .2.1.2.2 0 .2-.1c.1-.1 0-.2-.1-.2zm13.3 8.8c-.1.1-.1.1 0 .1 0 .1.1.1 0-.1.1.1.1.1 0 0zm13.1 8.9c-.2-.1-.5.1-.5.3-.1.2.1.5.3.5.2.1.5-.1.5-.3.1-.2-.1-.4-.3-.5zm12.7 9.8c-.2-.1-.5.1-.5.3-.1.2.1.5.3.5.2.1.5-.1.5-.3 0-.3-.1-.5-.3-.5zm12.1 10.5c-.1.1 0 .1 0 .1 0 .1 0 .1 0-.1.1.1.1.1 0 0zm11.9 10.5c-.2 0-.4.1-.4.3s.1.4.3.4.4-.1.4-.3-.1-.4-.3-.4zm11.4 11.3s-.2 0-.2.1 0 .2.1.2.2 0 .2-.1 0-.2-.1-.2zm10.9 11.6s-.2 0-.2.1 0 .2.1.2.2 0 .2-.1c.1-.1 0-.2-.1-.2zm10.5 12s-.2 0-.2.1 0 .2.1.2.2 0 .2-.1c.1-.1 0-.2-.1-.2zm10.1 12.2c-.2 0-.4.1-.4.3s.1.4.3.4.4-.1.4-.3-.1-.3-.3-.4zm9.5 13.1s-.1 0 0 0c-.1.1-.1.1 0 .1v-.1zm9 13.2s0-.1 0 0c-.1.1-.1.1 0 .1 0 0 .1 0 0-.1h0zm8.5 13.5c-.1.1-.1.1 0 .1v-.1zm8 13.8s-.1 0 0 0c-.1.1-.1.1 0 .1v-.1zm14.3 28.5s-.1 0 0 0c-.1.1-.1.1 0 .1v-.1zM599.1 114.6c-.1.1-.1.1 0 .1 0 0 .1 0 0-.1h0zm12.4 10.1s-.1 0 0 0c-.1.1-.1.1 0 .1v-.1zm12 10.5s-.1 0 0 0c-.1.1-.1.1 0 .1-.1 0 0 0 0-.1 0 .1 0 0 0 0zm11.5 11c-.1.1-.1.1 0 .1 0 0 0 0 0-.1.1.1 0 0 0 0zm11.1 11.4c-.1.1-.1.1 0 .1 0 0 .1 0 0-.1h0zm10.8 11.9s-.1 0 0 0c-.1.1-.1.1 0 .1v-.1zm10.2 12.2c-.1.1-.1.1 0 .1 0 0 0 0 0-.1h0zm36.3 52.5s-.1 0 0 0c-.1.1-.1.1 0 .1 0 0 0-.1 0-.1zm7.8 13.9s-.1-.1 0 0c-.1.1 0 .1 0 .1v-.1zm7.3 14.1s-.1 0 0 0c-.1.1-.1.1 0 .1 0 .1 0 .1 0-.1 0 .1 0 .1 0 0zm-99.1-154.1c-.1.1-.1.1 0 .1 0 0 .1 0 0-.1.1.1.1 0 0 0zm66.5 68.5s-.3.1-.3.2.1.3.2.3.3-.1.3-.2c.1-.1 0-.3-.2-.3zm35.5 53.2s-.1 0 0 0c-.1.1-.1.1 0 .1v-.1zm7.6 14c-.1.1-.1.1 0 .1 0 0 .1 0 0-.1h0zm-44.5-96.7c-.1.1-.1.1 0 .1 0 0 .1 0 0-.1.1.1.1 0 0 0zm10.3 12.3s-.1 0 0 0c-.1.1-.1.1 0 .1v-.1zm65.6 109s-.1 0 0 0c-.1.1-.1.1 0 .1v-.1zm6 14.8s-.1 0 0 0c-.1.1-.1.1 0 .1v-.1z" opacity=".05" fill="#6A1B9A"/></svg>